<svg width="267" height="222" viewBox="0 0 267 222" fill="none" xmlns="http://www.w3.org/2000/svg">
<path d="M124.417 123.053C122.802 124.255 120.852 126.187 120.143 128.947C119.631 130.997 120.123 132.199 119.946 134.84C119.828 136.673 119.355 139.255 117.838 142.33C114.391 141.621 108.601 140.931 101.766 142.508C97.6889 143.454 94.4193 144.932 92.0164 146.272C92.3906 146.509 92.9027 146.785 93.5527 146.962C97.2359 147.968 101.116 144.873 101.234 145.09C101.352 145.287 96.901 147.376 97.1374 149.19C97.295 150.412 99.4812 151.062 101.746 151.752C103.657 152.324 105.469 152.875 107.892 152.6C111.22 152.225 113.525 150.55 114.549 149.682C115.534 150.175 116.991 150.826 118.823 151.397C122.191 152.422 126.839 153.841 129.932 151.91C131.941 150.648 132.551 147.692 133.694 141.818C135.072 134.663 135.722 131.075 133.871 128.138C131.448 124.216 126.465 123.309 124.417 123.053V123.053Z" fill="white" stroke="#333333" stroke-width="1.33188" stroke-miterlimit="10"/>
<path d="M117.208 142.547C119.591 143.434 121.561 145.05 122.92 147.199C123.117 147.514 123.629 147.218 123.432 146.903C121.994 144.617 119.887 142.922 117.365 141.975C116.991 141.837 116.853 142.409 117.208 142.547V142.547Z" fill="#333333"/>
<path d="M104.524 146.43C102.18 146.824 100.289 148.401 99.442 150.609C99.3041 150.964 99.8753 151.121 100.013 150.766C100.781 148.756 102.554 147.356 104.681 147.002C105.055 146.943 104.898 146.371 104.524 146.43V146.43Z" fill="#333333"/>
<path d="M107.281 148.401C106.434 148.914 105.646 149.505 104.898 150.136C104.405 150.569 103.854 151.082 103.972 151.791C104.267 153.664 106.513 153.25 107.734 152.777C108.089 152.639 107.931 152.067 107.576 152.205C107.045 152.402 106.454 152.659 105.883 152.639C104.957 152.6 104.13 151.713 104.917 150.904C105.666 150.116 106.651 149.485 107.576 148.894C107.892 148.697 107.596 148.184 107.281 148.401Z" fill="#333333"/>
<path d="M142.793 98.7892C141.789 99.1243 140.509 99.6368 139.071 100.346C138.657 100.543 137.613 101.076 136.491 101.805C134.757 102.909 133.497 104.072 132.059 105.53C130.227 107.403 128.376 109.275 126.17 112.271C124.318 114.794 121.443 118.756 119.375 124.571C118.547 126.877 118.075 128.868 117.799 130.287C118.882 129.656 119.867 129.341 120.635 129.163C125.067 128.158 129.321 130.405 133.359 132.514C134.876 133.303 136.077 134.071 136.904 134.604C137.338 132.475 137.771 130.326 138.204 128.198C138.578 126.404 138.933 124.591 139.307 122.797C139.878 122.304 140.647 121.575 141.493 120.629C143.089 118.815 146.26 115.208 146.693 110.202C147.225 104.426 143.798 100.011 142.793 98.7892V98.7892Z" fill="#396BDB"/>
<path d="M141.631 99.0258C139.524 99.3411 137.712 100.465 136.077 101.766C134.186 103.244 132.413 104.88 130.759 106.614C127.529 109.965 124.712 113.71 122.388 117.751C122.191 118.086 122.703 118.382 122.9 118.047C125.146 114.144 127.824 110.517 130.936 107.265C132.453 105.688 134.048 104.19 135.722 102.791C137.515 101.312 139.425 99.9325 141.789 99.5777C142.163 99.5382 142.006 98.9666 141.631 99.0258V99.0258Z" fill="#333333"/>
<path d="M140.804 120.55C139.347 122.028 137.85 123.467 136.333 124.867C136.057 125.123 136.471 125.537 136.747 125.28C138.263 123.881 139.76 122.442 141.218 120.964C141.474 120.688 141.06 120.274 140.804 120.55Z" fill="#333333"/>
<path d="M138.756 123.25C138.066 127.035 137.397 130.839 136.707 134.623C136.845 134.564 137.003 134.505 137.141 134.446C134.009 132.258 130.523 130.622 126.82 129.597C123.924 128.809 120.241 128.04 117.759 130.228C117.484 130.484 117.897 130.898 118.173 130.642C120.694 128.395 124.771 129.577 127.627 130.445C130.917 131.45 134.009 132.987 136.825 134.939C136.983 135.037 137.219 134.939 137.259 134.761C137.948 130.977 138.618 127.173 139.307 123.388C139.386 123.033 138.815 122.876 138.756 123.25V123.25Z" fill="#333333"/>
<path d="M122.526 117.475C120.478 121.476 117.917 125.596 117.74 130.228C117.72 130.602 118.311 130.602 118.331 130.228C118.508 125.714 121.029 121.693 123.038 117.771C123.196 117.436 122.684 117.14 122.526 117.475Z" fill="#333333"/>
<path opacity="0.4" d="M140.036 110.024C136.51 117.041 134.6 122.955 133.477 127.094C131.842 133.165 131.271 137.954 127.036 141.936C126.347 142.586 124.318 144.459 121.127 145.622C114.431 148.046 109.467 144.774 105.252 148.243C104.78 148.638 103.381 149.623 103.539 150.747C103.696 151.811 105.154 152.363 105.37 152.462C107.104 153.132 108.896 152.442 111.141 151.535C113.682 150.51 113.407 150.155 114.549 149.958C116.952 149.544 118.055 151.062 121.246 152.067C122.605 152.481 126.623 153.743 129.518 152.067C131.645 150.826 132.295 148.5 133.319 144.577C134.029 141.916 134.757 138.033 134.639 133.145L137.003 134.978C138.027 126.66 139.031 118.342 140.036 110.024V110.024Z" fill="#333333"/>
<path opacity="0.38" d="M138.854 118.559C136.156 123.664 134.836 127.981 134.127 130.898C132.709 136.752 133.162 139.512 131.232 143.631C129.163 148.106 125.815 150.944 123.491 152.56C124.791 152.856 127.923 153.408 130.188 151.634C131.783 150.392 132.197 148.618 132.807 145.721C133.575 142.153 134.383 138.092 135.171 133.638L137.003 134.82C137.633 129.42 138.243 123.98 138.854 118.559V118.559Z" fill="#333333"/>
<path d="M142.38 98.3949C141.671 103.027 140.981 107.698 140.312 112.39C137.712 130.583 135.466 148.46 133.575 166.042C133.615 166.634 133.772 167.58 134.363 168.526C134.954 169.492 135.742 169.984 136.116 170.241C139.701 172.803 141.493 174.104 143.305 174.971C151.991 179.17 161.603 178.677 161.603 178.677C163.632 178.578 167.67 178.322 172.003 176.587C172.239 176.489 173.894 175.72 177.203 174.163C180.197 172.764 180.728 172.488 181.457 171.817C183.19 170.221 183.86 168.25 184.313 166.85C185.278 163.874 185.18 161.351 185.14 160.74C185.14 160.74 184.943 155.832 184.805 127.173C184.786 121.338 185.357 112.764 188.43 102.179C185.239 100.622 182.245 99.1833 178.641 97.4488C176.159 96.2464 173.854 95.1426 170.545 94.7484C169.6 94.6301 168.753 94.5907 167.492 94.6104C162.371 94.6499 158.156 95.4383 156.344 95.7537C152.819 96.3253 148.052 97.1925 142.38 98.3949V98.3949Z" fill="#396BDB"/>
<path d="M142.222 99.0847C148.328 97.7838 154.493 96.7391 160.678 95.9704C160.953 95.931 161.111 95.5762 160.835 95.4185C160.756 95.3791 160.678 95.32 160.579 95.2805C160.244 95.0834 159.949 95.5959 160.284 95.793C160.362 95.8324 160.441 95.8916 160.54 95.931C160.599 95.7536 160.638 95.5565 160.697 95.3791C154.453 96.1478 148.229 97.1925 142.084 98.5131C141.69 98.5919 141.848 99.1636 142.222 99.0847V99.0847Z" fill="#333333"/>
<path d="M140.39 109.413C138.224 124.866 136.254 140.339 134.482 155.852C134.265 157.803 134.048 159.735 133.832 161.686C133.654 163.381 133.162 165.293 133.379 166.988C133.576 168.486 134.757 169.432 135.841 170.339C137.022 171.325 138.263 172.251 139.563 173.099C144.901 176.548 151.145 178.618 157.487 178.992C165.03 179.426 172.614 177.494 179.054 173.552C179.369 173.355 179.074 172.842 178.759 173.04C167.492 179.919 153.154 180.195 141.671 173.67C140.351 172.921 139.071 172.093 137.85 171.187C136.609 170.26 134.6 168.999 134.088 167.481C133.851 166.752 133.969 165.944 134.048 165.175C134.147 164.209 134.265 163.224 134.363 162.258C134.56 160.444 134.757 158.631 134.974 156.818C135.821 149.426 136.688 142.054 137.633 134.682C138.697 126.305 139.8 117.928 140.981 109.571C141.021 109.196 140.45 109.039 140.39 109.413V109.413Z" fill="#333333"/>
<path d="M169.403 94.571C172.869 95.2609 176.119 96.8574 179.35 98.2175C182.521 99.5578 186.046 100.642 188.843 102.692C189.158 102.909 189.454 102.396 189.139 102.179C186.401 100.169 182.954 99.1045 179.862 97.8036C176.513 96.4041 173.145 94.7287 169.561 93.9994C169.186 93.9205 169.029 94.4921 169.403 94.571V94.571Z" fill="#333333"/>
<path d="M184.845 128C184.53 136.299 184.215 144.597 184.51 152.875C184.648 156.896 185.278 161.075 184.53 165.076C183.899 168.368 182.048 171.66 178.759 172.882C178.404 173.02 178.562 173.591 178.916 173.453C184.155 171.502 185.515 165.53 185.436 160.523C185.396 157.133 185.101 153.743 185.022 150.333C184.943 146.864 184.983 143.414 185.042 139.945C185.121 135.964 185.278 131.982 185.416 128C185.455 127.606 184.865 127.606 184.845 128V128Z" fill="#333333"/>
<path opacity="0.38" d="M182.009 123.329C180.965 126.916 179.33 130.839 176.809 134.742C165.523 152.107 144.861 155.576 139.583 156.305C146.673 157.054 153.843 157.862 161.091 158.73C169.088 159.676 176.986 160.681 184.766 161.706C184.274 152.895 184.274 145.642 184.392 140.458C184.608 129.735 185.377 121.062 183.978 120.786C183.643 120.708 183.052 121.082 182.009 123.329Z" fill="#333333"/>
<path opacity="0.42" d="M184.431 129.774C183.722 131.864 182.639 134.82 181.044 138.23C178.798 143.059 176.651 147.711 173.874 150.569C166.114 158.552 150.948 155.103 150.908 155.655C150.889 155.97 156.443 156.857 184.49 159.439C184.49 149.544 184.471 139.669 184.431 129.774Z" fill="#333333"/>
<path d="M219.766 211.042C147.481 201.384 75.176 191.725 2.89062 182.087C24.2217 169.708 45.5725 157.33 66.9035 144.952C132.118 151.377 197.352 157.823 262.566 164.249C248.287 179.84 234.026 195.451 219.766 211.042Z" fill="white" stroke="#333333" stroke-width="1.33188" stroke-miterlimit="10"/>
<path d="M2.18164 183.762C74.6443 193.381 147.107 203 219.55 212.619" stroke="#333333" stroke-width="7.10336" stroke-miterlimit="10"/>
<path d="M218.171 213.052C233.357 196.988 248.543 180.904 263.709 164.84" stroke="#333333" stroke-width="7.10336" stroke-miterlimit="10"/>
<path d="M193.984 170.832C186.598 176.607 179.369 182.56 172.259 188.67C171.964 188.927 172.397 189.34 172.673 189.084C179.783 182.974 187.031 177.021 194.398 171.246C194.693 171.029 194.279 170.596 193.984 170.832V170.832Z" fill="#333333"/>
<path d="M172.535 188.986C174.859 189.478 177.223 189.478 179.606 189.498C182.284 189.538 184.806 189.813 187.366 190.562C192.172 191.962 196.879 192.888 201.902 192.77C202.276 192.77 202.276 192.179 201.902 192.179C199.322 192.238 196.742 192.08 194.181 191.666C191.778 191.272 189.493 190.563 187.149 189.912C184.904 189.281 182.659 188.986 180.315 188.946C177.754 188.887 175.194 188.966 172.673 188.434C172.318 188.335 172.161 188.907 172.535 188.986Z" fill="#333333"/>
<path d="M194.417 171.266C202.217 171.896 209.958 173.138 217.561 174.991C217.935 175.09 218.092 174.518 217.718 174.419C210.076 172.547 202.276 171.305 194.417 170.674C194.043 170.635 194.043 171.226 194.417 171.266Z" fill="#333333"/>
<path d="M202.355 192.415C207.85 186.975 213.129 181.298 218.132 175.385C218.368 175.089 217.954 174.676 217.718 174.971C212.715 180.865 207.437 186.541 201.941 192.001C201.666 192.277 202.079 192.691 202.355 192.415Z" fill="#333333"/>
<path d="M179.409 186.64C186.184 185.812 193.039 186.66 199.401 189.143C199.755 189.281 199.913 188.71 199.558 188.572C193.157 186.088 186.224 185.221 179.409 186.049C179.035 186.088 179.035 186.68 179.409 186.64Z" fill="#333333"/>
<path d="M189.67 184.472C193.846 184.787 197.963 185.438 202.04 186.403C202.414 186.502 202.571 185.93 202.197 185.832C198.081 184.846 193.905 184.196 189.67 183.88C189.277 183.861 189.296 184.452 189.67 184.472V184.472Z" fill="#333333"/>
<path d="M186.539 180.116C192.822 180.254 199.046 181.16 205.112 182.836C205.487 182.934 205.644 182.363 205.27 182.264C199.164 180.589 192.881 179.662 186.539 179.524C186.164 179.524 186.164 180.116 186.539 180.116Z" fill="#333333"/>
<path d="M194.338 178.302C197.726 178.775 201.075 179.367 204.423 180.076C204.797 180.155 204.955 179.584 204.581 179.505C201.232 178.795 197.884 178.204 194.496 177.731C194.122 177.672 193.964 178.243 194.338 178.302Z" fill="#333333"/>
<path d="M190.025 191.528C188.824 193.381 187.622 195.234 186.401 197.067C186.283 197.244 186.44 197.54 186.657 197.52C196.367 196.417 206.215 197.047 215.709 199.373C216.083 199.472 216.241 198.9 215.867 198.802C206.314 196.456 196.426 195.825 186.657 196.909C186.736 197.067 186.834 197.205 186.913 197.363C188.115 195.51 189.316 193.657 190.537 191.824C190.754 191.509 190.242 191.213 190.025 191.528Z" fill="#333333"/>
<path d="M213.838 180.333L225.222 180.096C225.124 179.978 225.025 179.84 224.947 179.722C222.327 185.97 219.688 192.198 217.068 198.447C216.93 198.802 217.501 198.959 217.639 198.604C220.259 192.356 222.898 186.128 225.518 179.879C225.597 179.702 225.4 179.505 225.242 179.505L213.858 179.741C213.464 179.761 213.464 180.352 213.838 180.333V180.333Z" fill="#333333"/>
<path d="M199.44 195.017C200.444 194.82 201.449 194.781 202.473 194.859C202.847 194.879 202.847 194.288 202.473 194.268C201.39 194.189 200.346 194.248 199.282 194.446C198.908 194.505 199.066 195.076 199.44 195.017V195.017Z" fill="#333333"/>
<path d="M205.034 195.076C208.126 195.194 211.218 195.49 214.291 195.963C214.665 196.022 214.823 195.451 214.448 195.392C211.336 194.899 208.185 194.603 205.034 194.485C204.659 194.465 204.659 195.056 205.034 195.076Z" fill="#333333"/>
<path d="M205.211 191.371H207.417C207.791 191.371 207.791 190.779 207.417 190.779H205.211C204.837 190.779 204.837 191.371 205.211 191.371Z" fill="#333333"/>
<path d="M209.8 191.312C212.223 191.371 214.626 191.607 217.029 192.001C217.403 192.061 217.561 191.489 217.186 191.43C214.744 191.036 212.282 190.799 209.8 190.72C209.426 190.72 209.426 191.312 209.8 191.312Z" fill="#333333"/>
<path d="M209.426 187.941C212.183 187.98 214.921 188.138 217.659 188.453C218.033 188.493 218.033 187.901 217.659 187.862C214.921 187.547 212.183 187.369 209.426 187.35C209.052 187.33 209.052 187.921 209.426 187.941Z" fill="#333333"/>
<path d="M190.931 194.485C192.251 194.524 193.551 194.367 194.851 194.051C195.225 193.953 195.067 193.381 194.693 193.48C193.452 193.795 192.211 193.933 190.931 193.894C190.557 193.894 190.557 194.485 190.931 194.485V194.485Z" fill="#333333"/>
<path d="M200.287 163.598C199.775 164.229 199.184 165.51 199.794 166.279C200.169 166.752 200.878 166.653 201.409 166.673C202.375 166.712 203.34 166.772 204.305 166.811C208.224 166.988 212.124 167.185 216.044 167.363C216.418 167.383 216.418 166.791 216.044 166.772C213.148 166.634 210.273 166.496 207.377 166.358C205.959 166.298 204.561 166.22 203.143 166.161C202.453 166.121 201.725 166.161 201.035 166.062C200.523 165.983 200.149 165.963 200.169 165.333C200.188 164.84 200.405 164.387 200.7 164.012C200.937 163.716 200.523 163.283 200.287 163.598V163.598Z" fill="#333333"/>
<path d="M200.819 164.347C204.127 164.465 207.436 164.564 210.745 164.682C212.361 164.741 213.995 164.781 215.61 164.84C217.068 164.899 218.604 164.998 219.648 166.121C219.904 166.397 220.318 165.983 220.062 165.707C219.274 164.84 218.21 164.505 217.068 164.347C215.374 164.13 213.621 164.17 211.908 164.111C208.205 163.992 204.502 163.854 200.819 163.736C200.444 163.756 200.444 164.347 200.819 164.347Z" fill="#333333"/>
<path d="M215.847 167.383C217.364 167.402 218.801 166.929 220.023 166.023C220.318 165.806 220.023 165.293 219.727 165.51C218.585 166.358 217.285 166.811 215.847 166.791C215.453 166.791 215.453 167.383 215.847 167.383Z" fill="#333333"/>
<path d="M216.32 164.347C215.492 164.899 215.118 165.924 215.394 166.87C215.492 167.225 216.064 167.087 215.965 166.712C215.768 166.023 216.005 165.254 216.615 164.84C216.93 164.643 216.635 164.13 216.32 164.347Z" fill="#333333"/>
<path d="M72.5958 93.487C72.1034 92.462 70.705 92.3832 69.9565 93.1519C69.149 93.9797 68.7748 95.5763 68.8536 96.6998C69.0308 98.9666 71.2368 100.031 71.8277 102.061C72.1034 102.988 73.5216 103.283 73.9943 102.337C74.7821 100.78 75.8851 99.4396 76.8699 98.0204C77.7366 96.7589 79.0562 94.8076 78.5835 93.1913C78.3865 92.5014 77.776 91.9101 77.0275 91.8313C76.1215 91.7327 75.4912 92.2846 74.9594 92.9548C74.4276 93.6447 73.9549 94.3542 73.561 95.123C73.2064 95.7931 72.9307 96.5816 72.2413 96.9561C72.8125 97.1926 73.4034 97.4291 73.9746 97.6656C73.7185 96.8181 73.4625 95.9705 73.2261 95.1427C72.5761 95.5172 71.9065 95.9114 71.2565 96.2859C72.1428 97.2911 73.6594 97.4291 74.723 96.5816C75.2155 96.1873 75.4912 95.6552 75.826 95.1427C75.9836 94.9061 76.1215 94.6893 76.3578 94.5316C76.5154 94.4134 76.7124 94.3345 76.9093 94.2754C77.3033 94.2557 77.2836 94.2163 76.8699 94.1571C76.673 93.8221 76.476 93.4673 76.279 93.1322V93.2701C76.5745 92.8956 76.8502 92.5014 77.1457 92.1269C77.1063 92.1466 77.0669 92.1466 77.0275 92.1664C75.5897 92.6197 76.2003 94.9061 77.6578 94.4528C77.6972 94.4331 77.7366 94.4331 77.776 94.4134C78.3078 94.2557 78.6032 93.8023 78.6426 93.2701V93.1322C78.6623 92.7182 78.3865 92.324 78.0517 92.1072C77.0669 91.4765 75.6094 92.0875 74.8018 92.738C74.3488 93.1125 74.0337 93.5461 73.7185 94.0389C73.5216 94.3542 73.3049 95.0244 72.9307 94.5908C72.1428 93.7038 70.6262 94.6499 70.961 95.734C71.2171 96.5816 71.4732 97.4291 71.7095 98.257C71.9262 99.006 72.7731 99.3411 73.4428 98.9666C74.4473 98.4344 74.9988 97.508 75.4912 96.5224C75.7866 95.9508 76.0821 95.3989 76.4563 94.8864C76.5154 94.7879 77.0472 94.236 77.0275 94.1374C76.5154 93.7038 76.2594 93.7235 76.22 94.1966C76.1806 94.3542 76.1215 94.4922 76.0624 94.6302C75.0776 97.0152 73.1079 98.8286 71.9459 101.115C72.6746 101.214 73.3837 101.312 74.1125 101.391C73.7382 100.11 72.8913 99.1834 72.0837 98.1584C71.7489 97.7248 71.3747 97.2517 71.2565 96.7195C71.1777 96.345 71.2171 96.0099 71.3156 95.6551C71.3747 95.4186 71.4535 95.2018 71.5519 94.985C71.8868 94.5119 71.5519 94.3937 70.5671 94.6499C71.2171 96.0494 73.2458 94.847 72.5958 93.487V93.487Z" fill="#55C4E9"/>
<path d="M73.876 99.9521C75.6093 97.8628 77.1259 95.6355 78.3865 93.2505C79.0956 91.9101 77.0471 90.7078 76.3381 92.0481C75.176 94.2754 73.817 96.3648 72.2019 98.2767C71.2367 99.4397 72.8912 101.115 73.876 99.9521Z" fill="#55C4E9"/>
<path d="M78.5442 66.5029C78.229 68.5725 78.3078 70.6027 78.8593 72.6329C79.1548 73.7367 80.8683 73.2637 80.5729 72.1599C80.1199 70.4647 79.982 68.7105 80.2578 66.9759C80.4153 65.8524 78.7018 65.3794 78.5442 66.5029V66.5029Z" fill="#396BDB"/>
<path d="M79.2138 67.4096C81.3804 68.336 83.1137 66.5226 83.1925 64.3938C83.1925 64.1967 83.0743 63.6645 83.1531 63.4871H83.0546C83.2319 63.5463 83.3697 63.6448 83.4485 63.8222C83.7637 64.2164 83.9212 64.7289 84.2561 65.1231C84.9454 65.9313 85.8909 66.0495 86.8954 66.1087C87.3878 66.1284 87.9787 66.0693 88.2741 66.5423C88.5696 66.9957 88.412 67.7644 88.3726 68.2769C88.3332 68.9864 88.2741 69.7157 88.215 70.4253C88.1953 70.6027 88.0181 71.2729 88.2741 71.0167C88.1166 71.1941 87.4666 71.2335 87.2499 71.2926C85.95 71.5883 84.6106 71.7065 83.291 71.6277C82.6016 71.5883 81.5577 71.6671 81.1638 71.0561C80.8092 70.4845 80.7895 69.6172 80.888 68.9667C80.3562 69.0456 79.8047 69.1047 79.2729 69.1836C79.7456 70.2282 80.1986 71.2729 80.6714 72.3373C80.9865 73.0271 82.1289 72.83 82.2864 72.1205C82.7592 69.9917 82.1092 67.7644 82.7789 65.675C82.2864 65.813 81.794 65.9313 81.3016 66.0693C81.8728 66.7591 81.735 68.2374 81.8728 69.085C82.0304 70.0705 82.3061 70.9772 82.7592 71.8445C83.1728 72.5935 84.4727 72.2781 84.4136 71.3912C84.2561 69.0259 84.0985 66.6409 83.9606 64.2756C83.3894 64.3544 82.7986 64.4333 82.2274 64.5121C83.0546 66.7394 83.1728 69.0653 82.5228 71.3517L83.8228 70.8195C82.7198 69.972 81.8925 68.8682 81.3213 67.6067C80.9471 66.7985 79.6275 67.2125 79.6668 68.06C79.7062 68.8485 79.7259 69.6369 79.7653 70.4253H81.538C81.4986 69.4398 81.538 68.474 81.735 67.5081C81.8137 67.1731 81.8925 66.8183 81.991 66.4832C82.0501 66.2664 82.1289 66.0298 82.2077 65.813C82.4637 65.4976 82.4243 65.3794 82.0895 65.4582C83.0349 66.7986 83.1531 68.809 82.9955 70.3662C83.547 70.2085 84.0985 70.0705 84.65 69.9129C84.197 68.9864 83.9016 68.0009 83.7834 66.9759C83.7243 66.4438 83.7046 65.9116 83.744 65.3794C83.744 65.3005 83.8425 64.7486 83.8031 64.7092C83.6652 64.7289 83.5273 64.7289 83.3894 64.7486C83.4682 64.9063 83.547 65.0443 83.6258 65.202C84.5318 67.0548 84.8076 69.1441 84.5909 71.1941C85.1424 71.0364 85.6939 70.8984 86.2454 70.7407C85.8909 69.972 85.6151 69.1638 85.4576 68.336C85.3985 67.9812 85.3591 67.6264 85.3985 67.2716C85.4182 67.0745 85.4576 66.8774 85.5166 66.6803C85.7333 66.4438 85.753 66.3452 85.5757 66.4043C85.3394 66.3649 85.1227 66.3452 84.8864 66.3058C85.2015 66.4635 85.3985 68.0206 85.4576 68.3754C85.5757 69.223 85.556 70.11 85.4379 70.9575H87.1514C86.9348 70.3268 86.7772 69.6763 86.6787 69.0259C86.5802 68.3951 86.6393 67.7447 86.4424 67.1336C86.8757 68.4937 86.7969 69.9326 86.403 71.2729C86.9348 71.194 87.4863 71.1349 88.0181 71.0561C87.7817 70.5436 87.5848 69.9917 87.4863 69.4201C87.4272 69.1441 87.4075 68.8682 87.3878 68.5922C87.3878 68.474 87.3681 68.3557 87.3878 68.2374C87.4469 67.9615 87.309 67.9418 86.9939 68.1586L86.4621 67.7447C87.5848 69.6763 85.3394 71.8248 83.4288 71.5488C83.6455 71.8248 83.8622 72.1205 84.0788 72.3964C84.0591 72.0416 83.9409 71.5291 84.0591 71.1941L83.6455 71.7262C83.3107 71.9431 85.103 71.6868 84.3546 71.608C83.3304 71.5094 83.1728 73.0863 84.1182 73.3425C85.0636 73.5988 85.9303 74.1112 86.9348 73.993C87.8014 73.8944 88.4514 73.3819 88.8059 72.6132C89.1802 71.8051 89.2589 70.859 89.1408 69.972C89.0817 69.4792 88.9635 69.0259 88.7665 68.5922C88.6877 68.3951 88.5893 68.198 88.4908 68.0009C88.4317 67.8826 88.3529 67.7644 88.2741 67.6461C88.1953 67.4687 88.1559 67.5081 88.1953 67.7644C88.7468 67.9221 89.2983 68.06 89.8498 68.2177C89.8695 67.8432 89.9089 67.4884 89.9286 67.1139C89.3574 67.1928 88.7665 67.2716 88.1953 67.3505C88.5302 68.336 88.4711 69.2427 88.0772 70.2085C87.6438 71.2729 89.3574 71.7262 89.7907 70.6816C90.2831 69.4398 90.3225 68.1389 89.9089 66.8774C89.5938 65.9116 88.2347 66.1087 88.1756 67.1139C88.1559 67.4884 88.1165 67.8432 88.0969 68.2177C88.0378 69.085 89.3771 69.4595 89.7513 68.6711C90.1847 67.725 90.0665 66.5029 89.062 65.9707C88.1953 65.5174 87.0333 65.9116 86.6196 66.7986C86.0484 68.0206 87.3287 69.1047 87.4469 70.2874C87.506 70.8393 87.506 71.9431 86.8954 72.219C86.3045 72.4753 85.1818 71.7854 84.6303 71.6277C84.5515 72.1993 84.4727 72.7906 84.394 73.3622C86.1863 73.5199 86.2257 71.1546 84.9848 70.3859C84.3743 70.0114 83.547 69.7157 82.897 70.11C82.0895 70.6027 82.3258 71.5883 82.3455 72.3767C82.3652 72.7315 82.6016 73.1848 82.9955 73.2243C86.1469 73.6776 89.0226 71.1546 88.412 67.8629C88.2938 67.2125 88.0378 66.4832 87.309 66.3452C86.6984 66.2269 86.0878 66.5817 85.8318 67.1336C85.1818 68.5331 85.95 70.6027 86.5409 71.8839C86.8757 72.6132 87.959 72.357 88.1559 71.6671C88.5499 70.3465 88.668 68.9864 88.4317 67.6264C88.2544 66.6014 87.9393 65.2611 86.659 65.2217C83.8031 65.1626 84.9848 69.8537 85.4772 71.332C85.7333 72.081 87.0333 72.2584 87.1908 71.332C87.4272 69.8143 87.4075 68.2966 87.0136 66.7986C86.7772 65.9116 86.3045 64.177 85.0242 64.6304C84 65.0049 83.6849 66.4832 83.6849 67.449C83.6849 68.8682 84.197 70.2676 84.7879 71.5094C85.2015 72.3964 86.3636 71.8445 86.4424 71.0561C86.6196 69.4004 86.4818 67.725 86.0091 66.1284C85.6742 65.0049 85.0636 62.7381 83.5667 62.7973C82.1092 62.8367 82.0304 64.7092 82.0304 65.7736C82.0304 67.4884 82.4637 69.1441 83.2122 70.7013C83.6258 71.5686 84.7879 71.0364 84.8667 70.2479C85.0242 68.8485 84.8864 67.4293 84.453 66.089C84.1379 65.1034 83.6258 63.6843 82.444 63.5463C81.1441 63.4083 80.6911 64.9063 80.3956 65.8721C79.9623 67.2913 79.8244 68.7893 79.8835 70.2874C79.9426 71.4306 81.6956 71.4306 81.6562 70.2874C81.6168 69.4989 81.5971 68.7105 81.5577 67.9221C81.0062 68.0797 80.4547 68.2177 79.9032 68.3754C80.6123 69.9326 81.6956 71.1941 83.0349 72.219C83.5076 72.5738 84.197 72.1796 84.3349 71.6868C85.0833 69.1244 84.9848 66.4043 84.0394 63.9011C83.7046 63.0338 82.2274 63.0732 82.3062 64.1376C82.4637 66.5029 82.6213 68.8879 82.7592 71.2532C83.3107 71.0955 83.8621 70.9575 84.4136 70.7998C83.3894 68.8879 84.0788 66.3452 82.6804 64.6501C82.2274 64.0982 81.3804 64.453 81.2032 65.0443C80.5138 67.1533 81.1835 69.3609 80.7107 71.4897C81.2425 71.4109 81.794 71.3517 82.3258 71.2729C81.8531 70.2282 81.4001 69.1836 80.9274 68.1192C80.632 67.449 79.4305 67.6067 79.3123 68.336C79.0957 69.7157 79.1941 71.6474 80.3956 72.5935C80.9471 73.0272 81.6759 73.0666 82.3652 73.1454C83.291 73.244 84.2364 73.2834 85.1818 73.2243C86.0878 73.1651 86.9742 73.0271 87.8605 72.83C88.4514 72.6921 89.2392 72.5935 89.6529 72.1205C90.1847 71.5488 90.0862 70.6224 90.1453 69.8931C90.2044 69.0259 90.3028 68.1783 90.3225 67.311C90.3422 65.8919 89.771 64.6501 88.3135 64.2953C87.7226 64.1573 87.112 64.2362 86.5015 64.1376C85.556 63.9996 85.4575 63.1915 84.9454 62.5213C84.2955 61.654 82.897 61.1021 82.0107 61.9497C81.4395 62.5016 81.5577 63.2112 81.5774 63.9208C81.5971 64.5515 81.2819 66.1481 80.2774 65.7145C79.076 65.4385 78.1699 66.9759 79.2138 67.4096V67.4096Z" fill="#396BDB"/>
<path d="M27.0187 77.2256C28.3975 78.4871 29.6974 79.8471 30.8201 81.3452C31.5686 82.3307 32.3367 84.3018 33.6761 84.5777C34.4639 84.7354 35.0942 84.3215 35.6851 83.8484C36.4926 83.198 37.2805 82.5278 38.088 81.8576C38.8956 81.1875 39.6834 80.537 40.491 79.8669C41.0622 79.3938 41.7121 78.9602 41.7515 78.152C41.7909 77.3833 41.2985 76.8117 40.8455 76.2401C40.2152 75.4319 39.5653 74.6238 38.935 73.8156C38.3047 73.0075 37.6547 72.1994 37.0244 71.3912C36.5517 70.7999 36.1184 70.0115 35.3306 69.8341C34.6215 69.6764 33.9715 70.0903 33.3806 70.4057C32.5928 70.8196 31.8246 71.2927 31.0959 71.7854C29.658 72.771 28.3187 73.8945 27.0975 75.156C26.7233 75.5502 26.7627 76.2795 27.2748 76.5554C28.555 77.2059 29.7762 77.9746 30.8792 78.9207C31.3716 79.3347 31.8443 79.788 32.2973 80.2611C32.514 80.4976 32.7306 80.7341 32.9473 80.9904C33.0852 81.1481 33.223 81.3254 33.3609 81.4831C33.5382 81.9562 33.7942 81.9365 34.1094 81.3846C34.1882 81.9168 34.2473 82.4687 34.326 83.0009C36.3745 81.7591 38.2456 80.2216 39.8607 78.4477C40.5304 77.6987 39.6834 76.5554 38.7774 77.0482C37.3987 77.7972 35.9805 78.4083 34.5033 78.8813L35.5078 80.1822C36.3351 78.8616 37.3593 77.7184 38.5607 76.7131C38.088 76.3583 37.635 76.0035 37.1623 75.629C36.079 77.2453 34.72 78.6645 33.164 79.8274L34.4639 80.8327C34.976 78.9799 36.0199 77.3439 37.5759 76.1809L36.3548 74.9589C35.4684 76.7131 34.2276 78.2111 32.6322 79.3544H33.5185C33.5776 79.4135 33.617 79.4923 33.6761 79.5515C33.7155 79.3938 33.7549 79.2361 33.7942 79.0981C33.8533 78.901 33.9124 78.7039 33.9912 78.4871C34.1685 77.9549 34.4048 77.4621 34.6609 76.9694C35.1533 76.043 35.7639 75.2348 36.4926 74.4858C36.0199 74.131 35.5669 73.7762 35.0942 73.4017C34.0503 75.5502 32.6125 77.4227 30.8004 78.9996C31.3125 79.2164 31.8049 79.4135 32.317 79.6303C32.5337 77.3045 33.5382 75.1757 35.173 73.5003C34.7003 73.1455 34.2473 72.7907 33.7745 72.4162C32.967 73.993 31.7852 75.2348 30.2489 76.1218C30.7019 76.378 31.1352 76.6343 31.5883 76.8905C31.5686 76.1809 31.667 75.4911 32.0019 74.8603C32.1398 74.5844 32.317 74.3281 32.514 74.1113C32.8291 73.7368 33.42 73.6383 32.8685 73.2835C32.6125 72.9681 32.4746 72.9878 32.4549 73.382C32.3564 73.5791 32.2776 73.7762 32.1791 73.9733C32.0216 74.269 31.864 74.5449 31.7064 74.8209C31.5292 75.0968 31.3519 75.3728 31.1549 75.629C30.9974 75.8261 30.8595 76.0233 30.6822 76.2204C30.4065 76.378 30.3868 76.4963 30.6231 76.5554L31.0368 77.0876C30.8398 76.4569 31.4898 75.2742 31.7852 74.7421C31.9625 74.4464 32.9867 72.7513 33.4397 72.8498C33.6564 72.8892 33.9518 73.993 34.0306 74.1902C34.1882 74.6238 34.326 75.0771 34.4245 75.5305C34.523 75.9838 34.6412 76.4569 34.6412 76.9102C34.6412 77.4424 34.6412 77.4621 34.2079 77.0876C32.967 76.0233 32.8291 73.3229 34.6609 72.7118C35.5866 72.3965 35.8624 73.5791 36.079 74.2493C36.3942 75.2151 36.6896 76.2006 37.0047 77.1862C37.4971 76.8905 37.9895 76.6146 38.482 76.3189C37.379 75.2348 36.7881 73.8551 36.7487 72.2979C36.3745 72.5739 36.0002 72.8695 35.626 73.1455C37.6941 73.9339 38.0289 76.5357 38.3047 78.428C38.4623 79.5515 40.1758 79.0784 40.0183 77.9549C39.6243 75.2742 38.8956 72.4753 36.0987 71.4307C35.5669 71.2335 34.9563 71.746 34.976 72.2782C35.0154 74.2887 35.8033 76.1218 37.2214 77.541C37.832 78.152 38.9744 77.541 38.6986 76.6737C38.3441 75.5502 38.0289 74.4267 37.635 73.3229C37.3593 72.5344 37.0047 71.7066 36.276 71.2335C34.7003 70.1889 32.8488 71.3715 32.0413 72.8104C31.1156 74.4858 31.3519 76.5752 32.6125 77.9943C33.6564 79.1573 35.6851 79.788 36.2563 77.8366C36.7684 76.1021 35.882 73.5397 35.0154 72.0417C33.8336 70.0312 31.8837 71.5489 30.8792 72.8498C30.3474 73.5397 29.9338 74.2887 29.6383 75.0968C29.3626 75.8459 28.9096 77.0679 29.4611 77.7972C30.761 79.4923 32.6322 76.6146 33.2034 75.6685C33.6958 74.88 34.4048 73.7959 34.2866 72.8104C34.1685 71.884 33.3018 71.4504 32.4746 71.8052C30.6625 72.5936 29.7368 75.018 29.8156 76.8511C29.8353 77.5213 30.5444 77.9549 31.1549 77.6198C32.9276 76.5949 34.3654 75.0968 35.3109 73.2835C35.7639 72.4162 34.6412 71.4701 33.9124 72.1994C31.9428 74.2099 30.8004 76.7723 30.5444 79.5712C30.4656 80.399 31.5292 80.6553 32.061 80.2019C33.9715 78.5462 35.5275 76.516 36.6305 74.2493C37.0441 73.382 35.9805 72.4162 35.2321 73.1652C34.0897 74.3478 33.1837 75.7079 32.5534 77.2256C32.1398 78.2309 31.2731 80.1428 32.6125 80.8327C32.8882 80.9707 33.2427 81.0101 33.4988 80.8327C35.3502 79.5121 36.8472 77.8366 37.8714 75.8064C38.2259 75.0968 37.4381 74.0128 36.6502 74.5844C34.72 76.043 33.3609 77.9746 32.7306 80.3005C32.5337 80.9904 33.3806 81.7788 34.0306 81.3057C35.8623 79.9654 37.3987 78.3688 38.6789 76.4766C39.2698 75.5896 38.0092 74.8012 37.2805 75.3925C35.9608 76.4766 34.8578 77.7578 33.9518 79.2164C33.5382 79.8669 34.2276 80.7538 34.9563 80.5173C36.5911 80.0048 38.1668 79.3347 39.6637 78.5068C39.3092 78.0338 38.9547 77.5804 38.5804 77.1073C37.0638 78.7828 35.3306 80.2216 33.4003 81.3846C32.6913 81.8182 32.9276 82.7249 33.617 83.0009C34.4442 83.3359 35.3306 82.6658 35.3699 81.8182C35.429 80.7933 34.3654 79.8274 33.7352 79.1573C32.1398 77.4227 30.2292 76.0035 28.1414 74.9589C28.2005 75.4319 28.2596 75.8853 28.3187 76.3583C29.2444 75.4122 30.2292 74.5449 31.2731 73.7565C32.2185 73.0469 33.4003 72.1008 34.523 71.7263C34.8578 71.608 34.8381 71.5489 35.1139 71.8249C35.3896 72.1008 35.6063 72.4359 35.823 72.7316C36.2563 73.2835 36.7093 73.8551 37.1426 74.407C37.6153 75.018 38.1077 75.629 38.5804 76.2401C38.8365 76.5752 39.8804 77.5804 39.8016 77.9549C39.7228 78.3885 38.6395 79.0193 38.285 79.315L36.6305 80.675L34.976 82.035C34.7397 82.2321 34.2276 82.8037 33.8139 82.5869C33.6564 82.5081 33.3806 81.9168 33.2821 81.7788C31.8443 79.6106 30.1307 77.6592 28.2202 75.905C27.4323 75.2151 26.1718 76.4569 27.0187 77.2256V77.2256Z" fill="#396BDB"/>
<path d="M27.9642 75.6487C28.6732 77.0285 33.1246 84.7157 35.0154 82.0941C35.6851 81.1677 34.1488 80.2807 33.4791 81.2071C33.4397 81.2466 33.42 81.3057 33.3806 81.3451C33.6367 81.2071 33.8927 81.0495 34.1488 80.9115C33.8139 80.9509 33.0064 79.8274 32.7897 79.5711C32.3564 79.0784 31.9231 78.5856 31.5292 78.0534C30.761 77.0087 30.0913 75.9049 29.5005 74.7617C28.9884 73.7368 27.452 74.6435 27.9642 75.6487Z" fill="#396BDB"/>
<path d="M63.2007 51.3059C61.0932 49.7685 60.2857 46.6148 61.6053 44.3086C62.2553 43.1654 63.4371 42.239 64.8158 42.3967C66.234 42.5543 66.9233 43.5793 67.0218 44.9196C67.0809 45.6687 67.0021 46.4374 66.9824 47.1864C66.943 47.896 67.0218 48.7238 66.8249 49.4137C66.6279 50.1036 65.9188 50.4781 65.6431 51.1679C65.4067 51.7593 65.6628 52.2718 64.9734 52.4689C64.7764 52.528 64.5007 52.5083 64.3234 52.5674C64.0083 52.528 64.0083 52.5871 64.3234 52.7251C64.2446 52.4689 64.1856 52.2323 64.1068 51.9761C63.8507 51.1088 63.5947 50.2218 63.3386 49.3546C62.9053 47.896 61.9993 45.7475 63.1417 44.3875C62.6689 44.4466 62.1962 44.5057 61.7038 44.5648C62.3932 45.0773 62.1371 47.1667 62.1765 47.8763L62.3538 52.3112C62.4129 53.8683 64.5598 53.8092 64.7174 52.3112C64.8749 50.754 64.6583 49.2166 64.5992 47.6397C64.5598 46.9696 64.5598 46.2797 64.6583 45.6095C64.6977 45.2744 64.7764 44.9591 64.8749 44.6437C64.934 44.4269 65.0325 44.2101 65.131 44.0129C65.3476 43.6779 65.3476 43.6384 65.1507 43.8947C64.8552 43.9341 64.5401 43.9735 64.2446 44.0129C64.1856 43.9932 64.4613 44.7225 64.5007 44.8802C64.5795 45.1759 64.6189 45.4913 64.6583 45.7869C64.7371 46.6148 64.7371 47.4623 64.6977 48.2902C64.678 48.6647 64.6386 49.0392 64.5795 49.4334L64.4613 50.143C64.2643 50.6161 64.5992 50.7343 65.4658 50.4387C65.5446 50.281 65.3279 49.6502 65.3082 49.4728C65.2689 49.0589 65.2492 48.6253 65.2689 48.2113C65.2885 47.4032 65.387 46.6345 65.584 45.846C65.6431 45.6095 65.7022 45.3927 65.781 45.1562C66.0764 44.6437 65.7613 44.4663 64.8355 44.6437C64.7568 44.7817 65.0719 45.5307 65.1113 45.6686C65.2886 46.4965 65.3279 47.3441 65.2492 48.1916C65.2098 48.5858 65.1704 49.867 64.7174 49.9656C63.2401 50.3204 63.8704 52.6068 65.3476 52.252C66.9036 51.8775 67.337 50.3007 67.5339 48.9012C67.7506 47.2455 67.6718 45.373 67.0415 43.8158C66.4309 42.3178 64.6386 42.2981 63.8507 43.6779C63.0629 45.0576 62.8856 47.009 62.9053 48.5661C62.925 49.8276 62.9447 51.9958 64.4613 52.4491C66.1355 52.9419 66.7264 51.1285 66.9036 49.867C67.14 48.2113 67.1991 46.5162 66.9233 44.8605C66.7264 43.6384 65.9385 41.2929 64.2643 41.7462C62.6492 42.1601 62.3341 44.9788 62.2553 46.3191C62.1568 48.3296 62.5902 50.3204 62.3932 52.3309H64.7567C64.678 50.3401 64.5992 48.3493 64.5007 46.3585C64.4416 44.8408 64.2053 43.5005 62.925 42.5544C62.5508 42.2587 61.8023 42.377 61.4872 42.7317C60.1872 44.2692 60.0887 46.1614 60.5417 48.0537C60.7781 49.0786 61.1129 50.1036 61.4084 51.1088C61.6841 52.0549 61.8417 53.1982 62.3538 54.026C63.1614 55.3663 65.4067 55.051 66.5688 54.3611C67.1794 54.0063 67.593 53.415 67.7506 52.7251C67.8491 52.2915 67.8097 52.1141 68.0854 51.7593C68.4006 51.3651 68.7157 51.0497 68.9127 50.5766C69.2475 49.8276 69.2672 48.9998 69.3066 48.2113C69.346 47.2258 69.4445 46.2206 69.4248 45.2153C69.3854 43.461 68.8142 41.8053 67.2976 40.8001C64.3825 38.8684 60.719 40.6621 59.3403 43.5793C57.7252 47.0287 59.0251 51.1088 62.0387 53.3164C63.2401 54.2428 64.4219 52.1929 63.2007 51.3059V51.3059Z" fill="#55C4E9"/>
<path d="M63.0825 56.5293C63.4765 57.16 64.1855 57.3965 64.8946 57.1797C65.2097 57.0812 65.4855 56.9038 65.7218 56.687C65.7809 56.6278 65.8597 56.5687 65.9188 56.4898C65.9779 56.4307 65.9582 56.4307 65.8794 56.5096C66.2536 56.3124 65.9582 56.2533 65.0128 56.2927C65.4855 56.687 66.2339 56.7855 66.687 56.2927C67.1006 55.8591 67.1794 55.051 66.687 54.6173C66.1158 54.1246 65.387 54.0457 64.7173 54.4399C64.5007 54.5582 64.284 54.7356 64.1264 54.9327C63.9886 55.1101 64.3037 54.8144 64.087 54.9721C64.1264 54.9524 64.1658 54.9327 64.2052 54.9327C63.7916 55.0312 64.087 55.1692 65.0916 55.3466C64.7567 54.8144 64.028 54.5582 63.4765 54.913C62.984 55.2481 62.728 55.9774 63.0825 56.5293V56.5293Z" fill="#55C4E9"/>
<path d="M63.634 58.0865V58.2638C63.634 58.5595 63.7719 58.8946 63.9886 59.0917C64.1855 59.2888 64.5204 59.4465 64.8158 59.4465C65.131 59.4268 65.4461 59.3282 65.6431 59.0917C65.8597 58.8552 65.9976 58.5792 65.9976 58.2638V58.0865C65.9976 57.7908 65.8597 57.4557 65.6431 57.2586C65.4461 57.0615 65.1113 56.9038 64.8158 56.9038C64.5007 56.9235 64.1855 57.0221 63.9886 57.2586C63.7719 57.4754 63.634 57.7514 63.634 58.0865Z" fill="#55C4E9"/>
<path d="M51.9344 36.2863C57.1145 30.1169 62.078 23.77 66.8445 17.2458C66.3915 17.4232 65.9582 17.6006 65.5052 17.7977C65.9582 17.9356 66.293 18.1722 66.6278 18.5072C66.5687 18.0342 66.5097 17.5611 66.4506 17.0684C61.9007 23.5729 57.3706 30.0577 52.8207 36.5623C53.3525 36.4243 53.904 36.2863 54.4358 36.1287C54.0419 35.8921 53.648 35.6556 53.2541 35.3994C53.3919 35.9316 53.5298 36.4835 53.6874 37.0156C55.7555 34.3153 57.6463 31.5163 59.3599 28.5794C60.1281 27.2588 58.0797 26.0762 57.3115 27.3771C55.5979 30.2943 53.7071 33.1129 51.639 35.8133C51.245 36.3258 51.5799 37.1339 52.0723 37.4296C52.4662 37.6661 52.8601 37.9026 53.2541 38.1589C53.8253 38.5137 54.5146 38.2574 54.8692 37.7252C59.419 31.2207 63.9491 24.7358 68.499 18.2313C68.7944 17.7977 68.6566 17.1472 68.3217 16.7924C67.7111 16.1617 66.9824 15.728 66.1551 15.4718C65.6233 15.2944 65.1309 15.5901 64.8158 16.0237C60.1872 22.3706 55.3419 28.5597 50.2799 34.5715C49.2951 35.7739 50.9693 37.469 51.9344 36.2863V36.2863Z" fill="#55C4E9"/>
<path d="M38.6787 103.303V103.125C38.6787 101.608 36.3152 101.608 36.3152 103.125V103.303C36.3152 104.84 38.6787 104.84 38.6787 103.303V103.125C38.6787 101.608 36.3152 101.608 36.3152 103.125V103.303C36.3152 104.84 38.6787 104.84 38.6787 103.303Z" fill="#55C4E9"/>
<path d="M19.8098 86.805C21.3264 86.805 21.3264 84.4397 19.8098 84.4397C18.2932 84.4397 18.2932 86.805 19.8098 86.805Z" fill="#55C4E9"/>
<path d="M25.1476 87.8497C26.2899 87.8497 26.2899 86.0757 25.1476 86.0757C24.0052 86.0757 24.0052 87.8497 25.1476 87.8497Z" fill="#396BDB"/>
<path d="M97.5313 42.7909C98.6737 42.7909 98.6737 41.017 97.5313 41.017C96.389 41.017 96.389 42.7909 97.5313 42.7909Z" fill="#396BDB"/>
<path d="M108.64 69.5975V69.9326C108.64 70.1691 108.739 70.4056 108.896 70.5633C109.054 70.721 109.31 70.8393 109.526 70.8196C109.763 70.7999 109.999 70.7407 110.157 70.5633C110.314 70.3859 110.413 70.1691 110.413 69.9326V69.5975C110.413 69.361 110.314 69.1245 110.157 68.9668C109.999 68.8091 109.743 68.6908 109.526 68.7105C109.29 68.7302 109.054 68.7894 108.896 68.9668C108.739 69.1442 108.64 69.361 108.64 69.5975Z" fill="#396BDB"/>
<path d="M101.49 55.5241C104.839 56.0562 109.526 57.6134 108.285 61.9892C107.714 63.9997 106.139 65.4386 104.583 66.7198C103.046 67.9615 101.53 69.1836 100.131 70.5831C98.7918 71.9234 97.5706 73.382 96.448 74.9194C95.5616 76.1415 94.3405 77.6592 94.4783 79.2952C94.5965 80.7538 95.8768 81.1086 97.0388 81.562C98.713 82.2124 100.486 83.3556 101.136 85.1099C102.002 87.4752 100.19 89.5645 98.4767 90.964C96.9404 92.2255 95.2662 93.3096 94.2223 95.0441C94.0253 95.3792 94.5374 95.6749 94.7344 95.3398C96.6055 92.1861 101.372 90.9246 101.904 86.943C102.12 85.3859 101.411 83.9272 100.289 82.8826C99.7372 82.3504 99.0873 81.9168 98.4176 81.5422C97.61 81.1086 96.6646 80.9312 95.8768 80.4779C93.6708 79.1967 96.4283 75.9247 97.3737 74.6829C98.7327 72.8892 100.249 71.2335 101.924 69.7355C104.602 67.2914 108.798 65.1232 109.093 61.0431C109.388 56.9038 104.957 55.5043 101.687 54.9919C101.274 54.8933 101.116 55.4649 101.49 55.5241V55.5241Z" fill="#333333"/>
<path d="M43.3074 54.8933C39.8015 59.2099 35.8425 63.1324 31.47 66.562C27.1762 69.9326 22.5082 72.6132 17.7614 75.2742C13.3888 77.738 8.97681 80.261 5.23452 83.671C3.56033 85.1887 1.70888 86.9627 0.763459 89.0717C0.0346969 90.7077 -0.024392 92.8365 1.84675 93.684C2.87096 94.1374 4.07244 93.9797 5.13604 93.8023C6.86931 93.5066 8.58288 93.1321 10.2965 92.797C12.0494 92.462 13.8024 92.1072 15.5554 91.7721C17.2296 91.4567 20.3613 91.161 20.44 93.6643C20.4597 94.0388 21.0506 94.0388 21.0309 93.6643C20.9521 91.3384 18.4704 90.7471 16.5599 90.9837C13.6448 91.3582 10.7692 92.0874 7.87382 92.6394C5.8451 93.0336 0.428623 94.6696 0.822549 90.7865C1.0786 88.2833 3.44215 86.1151 5.15573 84.4791C8.77985 81.0494 13.1327 78.5067 17.4659 76.0626C22.0157 73.5002 26.5459 70.9772 30.7215 67.8235C35.5274 64.177 39.8803 59.9589 43.6817 55.2875C43.9574 55.0115 43.5438 54.5976 43.3074 54.8933V54.8933Z" fill="#333333"/>
<path d="M11.9707 95.3792C10.2374 97.4686 8.2087 99.9324 8.52384 102.83C8.7602 105.057 10.3556 107.147 12.7585 106.989C14.2949 106.89 15.6539 106.043 16.9932 105.392C18.6674 104.584 20.381 103.855 22.1537 103.323C23.9066 102.81 25.7384 102.475 27.5701 102.436C29.0277 102.416 30.6822 102.515 31.9033 103.421C33.7548 104.762 32.6124 106.772 31.6276 108.27C30.6625 109.709 29.8155 111.187 29.0671 112.744C28.3974 114.164 27.8065 115.642 27.3338 117.14C26.9793 118.263 26.5656 119.584 27.4323 120.57C29.2837 122.718 32.1003 120.885 33.6563 119.426C36.0395 117.199 38.6198 115.346 41.5939 113.966C44.9226 112.429 48.5467 111.522 52.1905 111.325C54.0419 111.227 55.9131 111.286 57.7448 111.581C59.3796 111.838 61.2114 112.35 61.9795 113.986C62.1371 114.321 62.6492 114.026 62.4916 113.691C61.428 111.384 58.513 111.03 56.2676 110.813C53.3329 110.537 50.339 110.754 47.4634 111.384C44.5877 112.015 41.7712 113.079 39.2106 114.538C37.9501 115.248 36.7683 116.056 35.6259 116.943C34.3457 117.948 33.2624 119.19 31.9624 120.116C30.8003 120.944 28.3186 121.555 27.6292 119.742C27.2944 118.855 27.7277 117.83 28.0035 116.962C28.2989 116.056 28.6337 115.169 29.008 114.302C29.6579 112.764 30.4261 111.286 31.2927 109.867C32.0609 108.625 33.2033 107.363 33.479 105.885C33.932 103.48 31.5685 102.239 29.5398 101.943C26.5262 101.529 23.3354 102.219 20.4992 103.244C18.7659 103.875 17.1311 104.683 15.4766 105.491C13.7631 106.338 11.6359 106.989 10.1783 105.313C7.46024 102.199 10.3162 98.2767 12.3843 95.7734C12.6404 95.4975 12.2267 95.0836 11.9707 95.3792V95.3792Z" fill="#333333"/>
<path d="M23.2959 105.353C25.1474 104.761 26.7822 106.575 26.8215 108.329C26.8609 110.182 25.6398 111.779 24.4186 113.04C24.1428 113.316 24.5762 113.73 24.8322 113.454C26.3291 111.916 27.8851 109.729 27.2943 107.442C26.8215 105.648 25.0095 104.19 23.1383 104.781C22.7838 104.899 22.9217 105.471 23.2959 105.353V105.353Z" fill="#333333"/>
<path d="M92.095 54.4991C93.0011 55.2481 94.0647 55.4058 95.1874 55.6423C96.4085 55.8985 97.4721 56.3716 98.3191 57.3177C99.9145 59.1114 100.407 61.8118 99.2251 63.9405C99.0478 64.2756 99.5403 64.5713 99.7372 64.2362C100.88 62.1863 100.643 59.6633 99.3827 57.7316C98.7918 56.8249 97.9645 56.0365 96.96 55.5635C95.5419 54.8933 93.7692 55.1101 92.5087 54.0852C92.2132 53.8486 91.7996 54.2625 92.095 54.4991V54.4991Z" fill="#333333"/>
<path d="M19.869 96.4829C20.9916 99.4987 24.5567 98.73 26.743 97.5473C28.1414 96.7983 29.4413 95.8325 30.5837 94.7287C31.8049 93.5263 32.7897 92.1071 33.9912 90.8851C35.3108 89.5448 37.1623 88.3227 39.1516 88.6578C40.944 88.9534 42.0273 90.55 43.1697 91.7721C44.6666 93.3489 47.6801 94.9652 49.1967 92.4619C49.3937 92.1269 48.8816 91.8312 48.6846 92.1663C47.7195 93.7431 45.6711 93.1912 44.4893 92.2451C43.4257 91.3778 42.6576 90.1952 41.6137 89.3082C39.644 87.6131 37.182 87.7708 35.0942 89.1899C32.7897 90.7471 31.3913 93.3292 29.2838 95.1229C28.0429 96.1676 26.6051 97.1334 25.0688 97.705C23.434 98.316 21.1492 98.2766 20.4402 96.345C20.3023 95.9704 19.7311 96.1281 19.869 96.4829V96.4829Z" fill="#333333"/>
<path d="M24.7929 78.1126C27.314 80.3005 29.4215 82.9023 31.0563 85.8195C31.2336 86.1546 31.7457 85.8589 31.5684 85.5238C29.9139 82.5475 27.7867 79.926 25.2065 77.6987C24.9308 77.4424 24.4975 77.8761 24.7929 78.1126V78.1126Z" fill="#333333"/>
<path d="M25.305 77.4818C27.4322 74.6632 30.4458 71.7854 33.7941 70.5042C34.3259 70.3071 34.9365 70.1297 35.5077 70.2677C36.2168 70.4254 36.6304 71.0364 37.044 71.5883C37.6349 72.357 38.2061 73.1455 38.7773 73.9339C39.9 75.5108 40.9636 77.1468 41.9681 78.8025C42.1651 79.1178 42.6772 78.8222 42.4802 78.5068C41.2196 76.4372 39.8606 74.407 38.4228 72.4556C37.3395 70.9773 36.3546 69.2427 34.2471 69.7355C32.4154 70.1691 30.6624 71.5095 29.2246 72.633C27.5504 73.9536 26.0732 75.491 24.7732 77.1862C24.5763 77.4818 25.0884 77.7775 25.305 77.4818Z" fill="#333333"/>
<path d="M31.4109 86.0757C35.4289 84.3806 39.0136 81.897 41.9878 78.7039C42.2438 78.428 41.8302 78.014 41.5742 78.29C38.6788 81.4043 35.1729 83.8681 31.2533 85.5041C30.8988 85.6618 31.0563 86.2334 31.4109 86.0757Z" fill="#333333"/>
<path d="M27.5898 77.876C29.8352 75.8458 32.3366 74.1704 35.0941 72.8892C35.429 72.7315 35.1335 72.219 34.7987 72.3767C32.0018 73.6776 29.461 75.3924 27.1762 77.4621C26.8808 77.6986 27.3141 78.1322 27.5898 77.876V77.876Z" fill="#333333"/>
<path d="M29.2246 78.8616C30.4458 77.9746 31.6669 77.1074 32.8881 76.2204C33.2033 76.0036 32.9078 75.4911 32.5927 75.7079C31.3715 76.5949 30.1503 77.4622 28.9292 78.3491C28.614 78.5857 28.9095 79.0982 29.2246 78.8616Z" fill="#333333"/>
<path d="M30.0518 80.2215C32.1002 78.7827 34.1486 77.3241 36.197 75.8852C36.5121 75.6684 36.2167 75.1559 35.9015 75.3727C33.8531 76.8116 31.8047 78.2702 29.7563 79.7091C29.4412 79.9259 29.7366 80.4384 30.0518 80.2215Z" fill="#333333"/>
<path d="M31.785 81.8379C33.0456 80.8129 34.3653 79.9062 35.744 79.0586C36.0788 78.8615 35.7637 78.3491 35.4485 78.5462C34.0107 79.3937 32.6517 80.3596 31.3714 81.4042C31.076 81.6605 31.4896 82.0744 31.785 81.8379V81.8379Z" fill="#333333"/>
<path d="M32.691 83.4542C34.5425 81.9364 36.5515 80.6749 38.6984 79.6303C39.0332 79.4726 38.7378 78.9601 38.403 79.1178C36.197 80.1822 34.1683 81.5028 32.2774 83.0402C31.982 83.2768 32.3956 83.6907 32.691 83.4542Z" fill="#333333"/>
<path d="M73.1868 95.8325C74.1519 94.6104 73.0095 93.1124 71.7292 92.7576C70.1929 92.324 68.44 93.0533 67.6718 94.433C66.8052 95.9705 67.1597 97.981 68.2824 99.2819C69.7202 100.977 73.4625 102.002 72.7928 104.801C72.6944 105.175 73.2656 105.333 73.364 104.959C74.1322 101.765 70.2914 100.78 68.696 98.868C67.5733 97.5079 67.3764 95.2215 68.7945 93.9797C69.3657 93.4869 70.1732 93.1913 70.9217 93.2307C71.808 93.2701 73.7186 94.2359 72.7928 95.4383C72.5368 95.7142 72.9504 96.1282 73.1868 95.8325V95.8325Z" fill="#333333"/>
<path d="M73.5019 95.7142C73.6594 94.6498 74.1519 93.7037 74.9397 92.9744C75.3139 92.6196 75.7473 92.3437 76.22 92.1268C76.4563 92.0283 76.7124 91.9297 76.9684 91.8706C77.5199 91.7523 77.6381 91.7523 78.0911 92.1466C78.5441 92.5605 78.5638 92.6787 78.5441 93.2504C78.5441 93.4672 78.5047 93.684 78.485 93.8811C78.4259 94.2753 78.3078 94.6498 78.1699 95.0243C77.8745 95.8325 77.4214 96.5815 76.9487 97.2911C75.2548 99.814 72.8322 102.12 72.6943 105.333C72.6746 105.708 73.2655 105.708 73.2852 105.333C73.4625 101.016 77.9335 98.5328 78.9578 94.5118C79.1547 93.7431 79.3123 92.7576 78.9774 92.0086C78.5638 91.1413 77.6578 91.1019 76.8305 91.299C74.8215 91.7721 73.2852 93.5263 72.9701 95.5565C72.8716 95.931 73.4428 96.1084 73.5019 95.7142V95.7142Z" fill="#333333"/>
<path d="M76.8501 65.9511C76.4956 67.863 76.4168 69.8735 76.8501 71.7854C77.2638 73.6185 78.5834 73.2243 80.1 73.3229C83.5469 73.5594 88.1164 75.7473 90.3815 71.8446C90.5784 71.5095 90.0663 71.2138 89.8694 71.5489C87.9391 74.88 83.8817 73.244 80.9273 72.8301C80.2379 72.7316 79.5879 72.7316 78.8985 72.7513C77.8349 72.7513 77.5198 72.2388 77.3622 71.2927C77.0668 69.5778 77.1062 67.8433 77.441 66.1285C77.4804 65.7342 76.9092 65.5766 76.8501 65.9511V65.9511Z" fill="#333333"/>
<path d="M76.929 66.8972C77.9926 66.2467 78.9183 66.1284 80.1198 65.9313C80.6319 65.8525 80.9667 65.6554 81.0455 65.1232C81.2621 63.7829 80.6909 62.4031 81.7545 61.2599C82.9363 59.9787 84.5317 61.1219 85.0241 62.4228C85.2605 63.0338 85.3984 63.7434 85.8711 64.2362C86.4817 64.8867 87.2892 64.7093 88.0574 64.9261C91.0315 65.7342 90.1452 69.5778 89.5149 71.6474C89.3967 72.0022 89.9679 72.1599 90.0861 71.8051C90.7558 69.6567 91.4254 66.976 89.6331 65.1823C89.3376 64.8867 89.0028 64.6501 88.6285 64.4924C88.0574 64.2559 87.4271 64.3742 86.8362 64.1574C85.6938 63.7434 85.7135 62.0483 85.0241 61.181C83.7833 59.6436 81.6561 59.8604 80.8091 61.6541C80.5728 62.1469 80.494 62.6593 80.4546 63.1915C80.4152 63.8223 80.7106 65.0838 80.041 65.34C79.5683 65.5371 78.8395 65.4583 78.3274 65.616C77.7168 65.7934 77.1653 66.0693 76.6335 66.3847C76.3184 66.6015 76.6138 67.114 76.929 66.8972V66.8972Z" fill="#333333"/>
<path d="M79.2728 66.2861C78.9774 68.612 79.3713 70.9182 80.3955 73.0272C80.5531 73.3623 81.0652 73.0666 80.9076 72.7315C79.9228 70.721 79.5682 68.5134 79.8637 66.2861C79.9228 65.9116 79.3319 65.9116 79.2728 66.2861V66.2861Z" fill="#333333"/>
<path d="M60.3251 53.1784C57.7843 51.9958 56.2677 49.256 56.4055 46.4571C56.5631 43.599 58.4933 40.9972 60.9554 39.6371C62.4917 38.7896 64.1265 38.5333 65.6825 39.44C67.1006 40.2482 68.1051 41.6476 68.6763 43.1456C69.7005 45.8657 69.3263 48.9603 67.7112 51.3847C67.4945 51.7001 68.0066 51.9958 68.2233 51.6804C70.902 47.6791 70.2914 40.7212 65.387 38.6516C62.925 37.6069 60.3054 39.0064 58.5327 40.7409C56.7995 42.4361 55.6768 44.8605 55.8146 47.3046C55.9722 50.005 57.5479 52.5477 60.01 53.7106C60.3645 53.8486 60.6599 53.3361 60.3251 53.1784V53.1784Z" fill="#333333"/>
<path d="M60.0493 53.888C59.5372 54.4399 59.6751 55.2875 60.3054 55.7014C61.3296 56.3716 63.1023 55.7605 64.1856 55.5043C65.3476 55.2283 67.1006 54.9721 67.8885 53.9471C68.3612 53.3164 68.3612 52.4491 67.7506 51.9169C67.4551 51.6804 67.0415 52.0943 67.337 52.3309C68.243 53.0996 67.0612 53.9866 66.3521 54.2625C65.7613 54.4793 65.1507 54.6567 64.5401 54.8144C63.9689 54.9524 63.3977 55.0904 62.8265 55.1889C62.472 55.2481 62.078 55.3466 61.7235 55.3663C61.2114 55.386 59.7342 55.1101 60.4827 54.3216C60.7387 54.026 60.3251 53.6121 60.0493 53.888Z" fill="#333333"/>
<path d="M61.1916 55.997C61.2704 57.16 62.2552 57.909 63.3976 57.9878C64.9733 58.0864 66.1551 56.7657 67.0808 55.6817C67.3172 55.386 66.9036 54.9721 66.6672 55.2677C66.0172 56.0365 65.2885 56.9234 64.3234 57.2585C63.3385 57.6133 61.881 57.2191 61.8022 55.997C61.7628 55.6225 61.1719 55.6225 61.1916 55.997V55.997Z" fill="#333333"/>
<path d="M62.787 58.2047C62.6294 59.0129 63.1218 59.8604 63.9688 59.9984C64.8354 60.1364 65.5839 59.3677 65.6036 58.5398C65.6036 58.1653 65.0127 58.1653 65.0127 58.5398C65.0127 59.0326 64.54 59.5254 64.0082 59.4071C63.5552 59.3085 63.2597 58.7961 63.3582 58.3624C63.437 57.9879 62.8658 57.8302 62.787 58.2047Z" fill="#333333"/>
<path d="M58.7493 45.7278C60.4432 46.8119 61.7432 48.3296 62.5704 50.1627C62.728 50.5175 63.2401 50.2022 63.0825 49.8671C62.2159 47.9354 60.8371 46.3586 59.0448 45.2154C58.71 45.0182 58.4145 45.5307 58.7493 45.7278Z" fill="#333333"/>
<path d="M61.7825 44.2889C62.1568 47.1273 62.5507 49.9656 62.9249 52.7843C62.984 53.1588 63.5355 53.0011 63.4961 52.6266C63.1219 49.7882 62.7279 46.9499 62.3537 44.1313C62.2946 43.7567 61.7431 43.9144 61.7825 44.2889Z" fill="#333333"/>
<path d="M62.8067 49.1181C63.3188 47.2652 64.5006 45.7672 66.1747 44.8211C66.5096 44.6437 66.2141 44.1312 65.8793 44.3086C64.0869 45.3139 62.787 46.9696 62.2355 48.9604C62.137 49.3349 62.7082 49.4926 62.8067 49.1181Z" fill="#333333"/>
<path d="M41.3379 99.7943C42.1257 101.509 42.9726 103.204 43.9181 104.84C44.3908 105.648 45.0211 107.186 46.1831 106.693C46.5377 106.535 46.2225 106.043 45.8877 106.181C45.1392 106.496 43.7999 103.441 43.5438 102.948C42.9333 101.825 42.3818 100.662 41.85 99.4987C41.6924 99.1439 41.1803 99.4395 41.3379 99.7943Z" fill="#333333"/>
<path d="M41.8697 100.149C43.5439 98.8483 45.1787 97.508 46.8726 96.2465C48.3498 95.123 49.9452 94.0389 51.7572 93.5264C53.7072 92.9548 55.4011 93.4081 56.701 94.985C57.804 96.3253 58.4737 97.981 59.2221 99.5185C59.3797 99.8536 59.8918 99.5579 59.7342 99.2228C58.2964 96.2662 56.6025 92.0875 52.5648 92.738C50.5558 93.0533 48.7437 94.1572 47.1089 95.3398C45.1787 96.759 43.3272 98.2767 41.4364 99.755C41.1606 99.9718 41.5743 100.386 41.8697 100.149V100.149Z" fill="#333333"/>
<path d="M45.3755 106.752C50.5162 105.629 55.2827 103.224 59.281 99.7944C59.5765 99.5381 59.1432 99.1242 58.8674 99.3804C54.9478 102.751 50.2601 105.077 45.2179 106.2C44.8437 106.279 45.0012 106.851 45.3755 106.752Z" fill="#333333"/>
<path d="M50.1617 101.194C49.1178 100.938 48.2511 99.9126 48.5072 98.7891C48.7435 97.705 50.0632 96.9166 51.1071 97.4291C53.2146 98.4934 51.7768 101.529 49.6102 100.76C49.2556 100.642 49.0981 101.214 49.4526 101.332C50.6738 101.765 52.151 101.174 52.6237 99.9323C53.0964 98.7103 52.3283 97.232 51.1268 96.7983C49.8268 96.3253 48.3496 97.2122 47.9754 98.5132C47.5421 99.9718 48.6057 101.411 50.0041 101.765C50.3783 101.864 50.5359 101.292 50.1617 101.194Z" fill="#333333"/>
<path d="M60.6599 86.2334C60.4235 84.1243 60.4038 81.7196 62.9053 81.148C64.1658 80.8523 65.2097 80.4778 65.9385 79.3149C66.687 78.1322 66.5885 77.0284 66.293 75.7275C66.0764 74.7026 66.0961 73.8156 66.9233 73.0469C67.593 72.4358 68.4793 72.1993 69.346 72.4753C69.7005 72.5935 69.8581 72.0219 69.5035 71.9036C68.243 71.5094 66.9233 72.0022 66.1158 73.0469C64.8749 74.6829 66.3324 76.3386 65.84 78.0928C65.5446 79.1375 64.737 80.0245 63.6931 80.3793C62.8462 80.6552 61.9402 80.6355 61.2311 81.2268C59.7342 82.4489 59.8721 84.5185 60.069 86.2334C60.1084 86.6079 60.6993 86.6079 60.6599 86.2334V86.2334Z" fill="#333333"/>
<path d="M55.8539 75.1953C55.2433 74.7026 55.7357 73.5988 56.5235 74.0127C56.8387 74.1704 57.0356 74.5449 56.8584 74.88C56.6811 75.215 56.2281 75.3924 55.8932 75.215C55.5584 75.0376 55.263 75.5501 55.5978 75.7275C56.2084 76.0232 56.9568 75.8064 57.3311 75.2545C57.725 74.6631 57.4689 73.9141 56.8978 73.5593C56.3266 73.2045 55.5584 73.3031 55.1842 73.8944C54.8493 74.4463 54.9281 75.215 55.4402 75.629C55.7357 75.8458 56.1493 75.4319 55.8539 75.1953V75.1953Z" fill="#333333"/>
<path d="M82.7984 44.6437C82.4439 44.0721 82.2272 43.3428 82.4438 42.6923C82.6211 42.1404 83.1726 41.8054 83.7438 41.8645C84.3741 41.9236 84.7089 42.515 84.3741 43.0669C84.0786 43.5793 83.4681 43.8356 82.8969 43.7567C82.5226 43.7173 82.5226 44.3086 82.8969 44.3481C83.7438 44.4466 84.6695 43.9341 84.9847 43.126C85.2801 42.3967 84.9059 41.5885 84.1574 41.352C83.4484 41.1155 82.5817 41.3914 82.1484 42.0025C81.4984 42.8895 81.7545 44.0918 82.2863 44.9788C82.4832 45.2547 82.9954 44.9591 82.7984 44.6437V44.6437Z" fill="#333333"/>
<path d="M51.0284 68.809C52.092 70.7407 54.2586 71.8248 56.4449 71.5094C59.1236 71.1152 60.5614 69.0653 61.625 66.7788C62.8659 64.1376 64.5794 61.9694 67.3172 60.8065C69.7989 59.7618 73.0094 60.294 75.0578 58.3426C75.8457 57.5936 76.3775 56.549 76.2002 55.4452C76.0624 54.5976 75.5503 53.888 75.7472 53.001C75.9836 52.0352 76.732 51.3256 77.6775 51.1285C78.0517 51.0497 77.8941 50.478 77.5199 50.5569C76.3775 50.8131 75.4518 51.6804 75.176 52.8433C75.0185 53.4741 75.1366 54.0457 75.3336 54.6567C75.6487 55.6423 75.7669 56.4504 75.1169 57.3571C73.9746 58.9537 71.9655 59.1705 70.1732 59.4267C68.5778 59.6633 67.0809 60.0969 65.7021 60.9247C64.4809 61.654 63.3977 62.6396 62.5507 63.7828C61.625 65.0443 61.1129 66.5226 60.3644 67.8826C59.419 69.5581 57.863 70.8393 55.8737 70.9575C54.0616 71.0561 52.3677 70.0902 51.4814 68.4937C51.3632 68.1783 50.8511 68.474 51.0284 68.809V68.809Z" fill="#333333"/>
<path d="M46.9119 36.4834C46.5771 38.9473 46.2423 41.4111 45.9271 43.875C45.868 44.2495 46.4392 44.4072 46.4983 44.0326C46.8332 41.5688 47.168 39.105 47.4831 36.6411C47.5422 36.2666 46.971 36.1089 46.9119 36.4834Z" fill="#333333"/>
<path d="M46.8135 44.21L53.786 39.1838C54.1011 38.9669 53.8057 38.4545 53.4905 38.6713L46.518 43.6975C46.2029 43.9143 46.4983 44.4268 46.8135 44.21Z" fill="#333333"/>
<path d="M47.2861 36.8186C53.1162 28.9934 58.8478 21.1091 64.481 13.1459C64.6976 12.8306 64.1855 12.5349 63.9689 12.8503C58.3357 20.8134 52.6041 28.7174 46.774 36.5229C46.5574 36.8186 47.0695 37.1142 47.2861 36.8186Z" fill="#333333"/>
<path d="M54.5146 38.2968C59.872 31.2009 65.0718 23.9868 70.1141 16.6544C70.3307 16.339 69.8186 16.0433 69.602 16.3587C64.5597 23.6714 59.3599 30.9052 54.0025 38.0011C53.7662 38.2968 54.2782 38.5924 54.5146 38.2968Z" fill="#333333"/>
<path d="M64.3037 13.1459C65.2295 11.4114 66.3128 9.3023 68.3612 8.73069C70.3899 8.15908 72.3792 9.69652 72.4186 11.8056C72.4186 12.1801 73.0095 12.1801 73.0095 11.8056C72.9898 9.77536 71.2762 7.94226 69.1884 8.00139C66.4506 8.08024 64.9143 10.7018 63.7916 12.8502C63.6144 13.1853 64.1265 13.481 64.3037 13.1459V13.1459Z" fill="#333333"/>
<path d="M70.2322 16.5953C71.2367 15.0973 72.1427 13.5598 72.9503 11.9436C73.1275 11.6085 72.6154 11.3128 72.4382 11.6479C71.6306 13.2642 70.7246 14.8016 69.7201 16.2996C69.5231 16.5953 70.0352 16.9107 70.2322 16.5953Z" fill="#333333"/>
<path d="M63.8704 14.1118C66.1354 12.5743 69.0702 13.4022 70.1929 15.8857C70.3504 16.2405 70.8625 15.9251 70.705 15.5901C69.4444 12.8108 66.0763 11.8844 63.5749 13.5993C63.2598 13.8161 63.5552 14.3286 63.8704 14.1118V14.1118Z" fill="#333333"/>
<path d="M62.8264 15.8856C64.796 14.6242 67.6914 15.452 68.5974 17.6596C68.7353 18.0144 69.3065 17.8567 69.1686 17.5019C68.105 14.979 64.8551 13.8949 62.531 15.3732C62.2158 15.59 62.5113 16.1025 62.8264 15.8856V15.8856Z" fill="#333333"/>
<path d="M46.9316 37.0945C48.0148 37.745 49.0981 36.3258 50.2208 36.3455C51.0678 36.3652 51.8556 36.7594 52.348 37.469C52.7026 37.9815 52.8798 38.4743 53.451 38.7699C53.7859 38.9473 54.0813 38.4348 53.7465 38.2574C53.0768 37.9027 52.8798 37.0354 52.3086 36.5426C51.9147 36.2075 51.442 35.971 50.9299 35.8527C50.4178 35.7345 49.886 35.7345 49.3936 35.8527C48.7633 36.0104 47.8376 36.9368 47.2467 36.582C46.9119 36.3849 46.6164 36.8974 46.9316 37.0945Z" fill="#333333"/>
<path d="M50.1616 36.0301C54.1403 30.787 58.1386 25.5242 62.1173 20.2812C62.3536 19.9855 61.8415 19.6898 61.6052 19.9855C57.6265 25.2286 53.6282 30.4913 49.6495 35.7344C49.4329 36.0301 49.945 36.3257 50.1616 36.0301Z" fill="#333333"/>
<path d="M56.4055 32.0879C60.1084 26.6478 64.028 21.385 68.1839 16.2799C68.4203 15.9843 68.0066 15.5703 67.7703 15.866C63.5947 21.0105 59.616 26.3127 55.8934 31.7923C55.6965 32.1077 56.2086 32.4033 56.4055 32.0879V32.0879Z" fill="#333333"/>
<path d="M46.6952 42.3376C47.0694 42.0222 47.6209 42.3376 47.5224 42.8303C47.4436 43.2049 48.0148 43.3625 48.0936 42.988C48.1921 42.515 48.0148 42.0222 47.5815 41.766C47.1482 41.5097 46.6361 41.6083 46.2618 41.9237C45.9861 42.1602 46.3997 42.5741 46.6952 42.3376V42.3376Z" fill="#333333"/>
<path d="M46.8724 42.2587C46.7739 42.6726 46.5966 43.0471 46.3406 43.3822C46.4981 43.4807 46.6754 43.5793 46.833 43.6779C46.9512 43.2442 47.1875 42.8697 47.5223 42.5543L47.0496 42.4952C47.1481 42.712 47.0693 42.9486 46.8724 43.0668C47.0102 43.126 47.1678 43.1851 47.3057 43.2442C47.2269 42.9683 47.286 42.712 47.4633 42.4952C47.3451 42.5149 47.2269 42.5346 47.1087 42.5346C47.2663 42.6135 47.2466 42.8303 47.089 42.9091C47.2072 42.9288 47.3254 42.9486 47.4436 42.9486C47.3254 42.85 47.2269 42.7317 47.1678 42.5938C47.1481 42.5346 47.1284 42.4755 47.1087 42.3967C47.1087 42.3572 47.0693 41.9433 47.0103 42.0616C46.833 42.3967 47.3451 42.6923 47.5223 42.3572C47.7981 41.8448 47.089 41.3914 46.6951 41.8053C46.2815 42.2587 46.6557 43.0077 47.0496 43.3428C47.1481 43.4413 47.286 43.461 47.4042 43.3822C47.9557 43.1062 47.9557 42.2784 47.4239 41.9827C47.3254 41.9236 47.1481 41.9236 47.0693 42.0222C46.7542 42.3967 46.636 42.8697 46.7542 43.3428C46.7936 43.5202 47.0299 43.6187 47.1875 43.5202C47.6799 43.2245 47.8178 42.6332 47.5814 42.1404C47.5027 41.963 47.2466 41.963 47.1087 42.0813C46.6951 42.4558 46.4194 42.9288 46.2815 43.461C46.2027 43.7173 46.5769 43.9932 46.7739 43.7567C47.089 43.3428 47.3254 42.8894 47.4633 42.3769C47.542 42.0419 46.9709 41.8842 46.8724 42.2587V42.2587Z" fill="#333333"/>
<path d="M45.7695 45.3532C45.3756 47.482 44.4893 49.4334 43.0908 51.0891C42.8545 51.3847 43.2681 51.7986 43.5045 51.503C44.962 49.7487 45.9271 47.7382 46.3407 45.4912C46.3998 45.1364 45.8286 44.9787 45.7695 45.3532V45.3532Z" fill="#333333"/>
<path d="M41.6528 47.8171C39.6044 49.3349 37.4378 50.6949 35.1925 51.8973C34.8576 52.0747 35.1531 52.5871 35.4879 52.4097C37.7333 51.2074 39.8999 49.8473 41.9483 48.3296C42.2634 48.0931 41.968 47.5806 41.6528 47.8171Z" fill="#333333"/>
<path d="M89.7316 92.8759C89.1998 92.0481 88.3134 92.4817 87.8407 93.1125C87.3286 93.7629 86.915 94.5316 86.4817 95.2412C86.1468 95.7931 85.7529 96.4042 85.6938 97.094C85.5756 98.4738 86.6195 98.6315 87.6634 98.9666C88.9043 99.3805 88.8255 100.839 88.0377 101.647C87.4074 102.298 86.4817 102.574 85.6544 102.85C85.2999 102.968 85.4575 103.539 85.812 103.421C87.4665 102.889 89.9285 101.687 89.0816 99.479C88.9437 99.1242 88.7073 98.8286 88.3922 98.6315C88.2149 98.5329 88.018 98.4541 87.821 98.3949C87.2498 98.2176 87.0923 98.2767 86.6392 97.7839C86.265 97.5671 86.1468 97.2714 86.3241 96.8772C86.4029 96.6013 86.5014 96.345 86.6392 96.1085C86.7968 95.7931 86.9938 95.4975 87.1907 95.2018C87.3877 94.9061 88.7664 92.4226 89.2195 93.1519C89.4164 93.487 89.9285 93.1913 89.7316 92.8759V92.8759Z" fill="#333333"/>
<path d="M55.913 116.075C57.5281 115.662 58.9069 117.258 58.1978 118.796C58.0402 119.131 58.5523 119.446 58.7099 119.091C59.6356 117.1 57.922 114.952 55.7751 115.504C55.3812 115.602 55.5388 116.174 55.913 116.075V116.075Z" fill="#333333"/>
<path d="M86.0878 83.6119C85.3393 83.06 85.3393 81.6211 86.4817 81.5817C86.8954 81.5619 87.3287 81.7985 87.309 82.2518C87.309 82.6263 86.9741 83.0797 86.5605 83.0205C86.1863 82.9614 86.0287 83.533 86.403 83.5921C87.1317 83.7104 87.762 83.1782 87.8802 82.4686C88.0181 81.7393 87.4862 81.1086 86.7772 81.01C86.0484 80.8918 85.3 81.3057 85.0439 82.0153C84.7879 82.8037 85.1424 83.6513 85.7924 84.1243C86.0878 84.3412 86.3833 83.8287 86.0878 83.6119V83.6119Z" fill="#333333"/>
<path d="M3.75736 81.1677C4.03311 80.0639 4.97853 79.4331 5.86486 78.8221C6.79059 78.1716 7.73601 77.5015 8.68143 76.851C10.5526 75.5304 12.4237 74.2295 14.2949 72.9089C14.61 72.692 14.3146 72.1796 13.9994 72.3964C11.8131 73.9338 9.62685 75.4515 7.44057 76.989C5.96335 78.0139 3.65888 79.098 3.18617 81.01C3.08769 81.3845 3.65888 81.5422 3.75736 81.1677V81.1677Z" fill="#333333"/>
<path d="M135.9 184.787L64.1069 172.488C78.6428 166.614 93.1786 160.76 107.715 154.886C130.444 159.952 153.174 165.017 175.883 170.083C162.569 174.991 149.234 179.879 135.9 184.787V184.787Z" fill="white" stroke="#333333" stroke-width="1.33188" stroke-miterlimit="10"/>
<path d="M134.915 185.083C134.994 185.319 135.053 185.576 135.132 185.812C135.23 186.128 135.703 186.068 135.703 185.733V185.162C135.703 184.787 135.112 184.787 135.112 185.162C135.112 185.398 135.072 185.615 134.974 185.832H135.545C135.466 185.576 135.447 185.339 135.506 185.063C135.329 185.083 135.151 185.103 134.974 185.142C135.033 185.201 135.033 185.241 134.994 185.3C135.171 185.319 135.348 185.339 135.525 185.379C135.486 185.241 135.506 185.122 135.585 185.004C135.407 184.945 135.21 184.905 135.033 184.846C134.994 185.162 134.954 185.457 134.915 185.773C134.895 185.93 135.072 186.068 135.21 186.068C135.388 186.068 135.486 185.93 135.506 185.773C135.545 185.457 135.585 185.162 135.624 184.846C135.663 184.551 135.21 184.472 135.072 184.689C134.915 184.945 134.876 185.241 134.954 185.536C135.013 185.792 135.368 185.812 135.486 185.615C135.644 185.379 135.644 185.083 135.466 184.866C135.329 184.689 134.974 184.669 134.935 184.945C134.856 185.3 134.876 185.674 134.974 186.029C135.072 186.325 135.447 186.285 135.545 186.029C135.644 185.753 135.703 185.477 135.703 185.201H135.112V185.773C135.309 185.753 135.506 185.714 135.683 185.694C135.604 185.457 135.545 185.201 135.466 184.965C135.388 184.551 134.816 184.708 134.915 185.083V185.083Z" fill="#333333"/>
<path d="M135.368 186.502C138.539 184.866 142.006 183.999 145.413 183.033C147.087 182.56 148.742 182.047 150.337 181.377C151.874 180.747 153.351 179.958 154.867 179.249C158.235 177.672 161.879 176.647 165.405 175.484C169.068 174.262 172.712 173.04 176.376 171.837C176.73 171.719 176.573 171.147 176.218 171.266C172.555 172.488 168.911 173.71 165.247 174.912C161.781 176.055 158.216 177.08 154.887 178.598C153.154 179.386 151.46 180.313 149.687 181.003C148.072 181.633 146.418 182.126 144.743 182.599C141.454 183.545 138.126 184.413 135.053 185.99C134.738 186.167 135.033 186.679 135.368 186.502Z" fill="#333333"/>
<path d="M135.644 186.384C149.254 181.673 162.825 176.903 176.395 172.054C177.459 171.679 177.006 169.965 175.923 170.339C162.372 175.188 148.781 179.958 135.171 184.669C134.107 185.043 134.56 186.758 135.644 186.384Z" fill="#333333"/>
<path d="M134.107 167.343C136.668 167.599 138.854 169.157 141.375 169.649C141.749 169.728 141.907 169.157 141.533 169.078C138.972 168.565 136.747 167.008 134.107 166.752C133.733 166.732 133.733 167.323 134.107 167.343V167.343Z" fill="#333333"/>
<path d="M141.553 169.373C143.109 168.526 144.566 167.521 145.886 166.338C146.162 166.082 145.748 165.668 145.472 165.924C144.172 167.067 142.774 168.053 141.257 168.861C140.922 169.058 141.218 169.571 141.553 169.373Z" fill="#333333"/>
<path d="M134.718 166.22C135.959 165.333 137.239 164.485 138.559 163.697C138.894 163.5 138.578 162.987 138.263 163.184C136.944 163.973 135.663 164.801 134.423 165.707C134.107 165.944 134.403 166.456 134.718 166.22Z" fill="#333333"/>
<path d="M138.657 163.795C140.903 164.643 143.148 165.471 145.413 166.318C145.768 166.456 145.925 165.885 145.571 165.747C143.325 164.899 141.08 164.071 138.815 163.224C138.46 163.105 138.303 163.677 138.657 163.795Z" fill="#333333"/>
<path d="M132.335 169.59C138.263 171.423 144.113 173.532 149.845 175.917C150.199 176.055 150.357 175.484 150.002 175.346C144.271 172.961 138.421 170.852 132.492 169.019C132.118 168.9 131.961 169.472 132.335 169.59Z" fill="#333333"/>
<path d="M132.906 174.183C136.589 175.957 140.312 177.632 144.074 179.268C144.428 179.426 144.724 178.913 144.369 178.756C140.607 177.139 136.885 175.444 133.202 173.67C132.867 173.513 132.571 174.025 132.906 174.183Z" fill="#333333"/>
<path d="M133.438 179.248C135.447 180.273 137.456 181.318 139.465 182.343C139.8 182.52 140.095 182.008 139.76 181.831C137.751 180.806 135.742 179.761 133.733 178.736C133.398 178.559 133.103 179.071 133.438 179.248Z" fill="#333333"/>
<path d="M134.58 179.426C137.357 177.061 140.272 174.892 143.306 172.882C143.621 172.665 143.325 172.153 143.01 172.369C139.938 174.4 136.983 176.627 134.167 179.012C133.871 179.268 134.285 179.682 134.58 179.426Z" fill="#333333"/>
<path d="M133.851 175.385C135.427 174.281 137.003 173.178 138.579 172.054C138.894 171.837 138.598 171.325 138.283 171.542C136.707 172.645 135.132 173.749 133.556 174.873C133.261 175.089 133.556 175.602 133.851 175.385Z" fill="#333333"/>
<path d="M134.836 186.147L60.5615 173.493C58.2374 155.891 55.8935 138.309 53.5693 120.708C80.2184 124.295 106.848 127.882 133.497 131.489C133.95 149.702 134.403 167.915 134.836 186.147V186.147Z" fill="white" stroke="#333333" stroke-width="1.33188" stroke-miterlimit="10"/>
<path d="M90.7165 155.694C88.5696 155.024 87.4075 153.211 87.2303 151.023C87.053 148.795 87.4863 146.647 89.5544 145.484C91.3862 144.459 93.5725 144.755 95.2073 145.996C96.8421 147.238 98.2996 149.781 96.9799 151.732C96.7633 152.048 97.2754 152.343 97.492 152.028C98.9102 149.939 97.5708 147.179 95.8375 145.74C94.0452 144.262 91.6225 143.809 89.515 144.853C87.0727 146.056 86.4424 148.5 86.6394 151.042C86.8363 153.506 88.1363 155.536 90.5589 156.285C90.9135 156.384 91.071 155.812 90.7165 155.694V155.694Z" fill="#333333"/>
<path d="M91.2679 155.911C90.3619 154.413 90.6573 152.324 92.1149 151.279C93.5724 150.234 95.6602 150.668 96.7632 152.008C96.9995 152.304 97.4132 151.89 97.1768 151.594C95.8769 150.037 93.4345 149.604 91.7406 150.806C90.0467 152.028 89.6922 154.472 90.7558 156.207C90.9528 156.522 91.4649 156.226 91.2679 155.911Z" fill="#333333"/>
<path d="M93.2967 156.739C92.371 155.753 92.5089 153.92 93.7497 153.211C94.9709 152.501 96.6254 153.309 97.0193 154.61C97.1375 154.965 97.7087 154.827 97.5905 154.452C97.0784 152.797 95.0103 151.811 93.4543 152.718C91.8983 153.624 91.7013 155.911 92.8831 157.172C93.1391 157.429 93.5528 157.015 93.2967 156.739V156.739Z" fill="#333333"/>
<path d="M94.8134 158.118C95.5816 158.394 96.4679 157.941 96.7634 157.212C97.0785 156.482 96.6649 155.694 95.9755 155.379C95.2861 155.063 94.4589 155.241 94.0847 155.911C93.7301 156.561 93.8483 157.448 94.4392 157.921C94.7347 158.158 95.1483 157.744 94.8528 157.507C94.065 156.896 94.6165 155.458 95.6604 155.891C96.1134 156.069 96.4285 156.542 96.2119 157.034C95.9952 157.507 95.4437 157.744 94.971 157.567C94.6165 157.429 94.4589 158 94.8134 158.118Z" fill="#333333"/>
<path d="M133.497 131.47L135.23 185.773" stroke="#333333" stroke-width="1.33188" stroke-miterlimit="10"/>
<path d="M133.615 131.43L135.21 185.004" stroke="#333333" stroke-width="1.33188" stroke-miterlimit="10"/>
<path opacity="0.37" d="M99.5207 127.803C100.801 128.474 111.791 134.466 112.56 145.109C112.993 150.983 110.117 155.438 108.305 158.158C98.5359 172.862 79.2138 175.464 73.9746 176.016C81.5971 181.082 108.226 197.777 137.338 196.791C143.818 196.574 153.863 196.121 164.755 190.129C172.929 185.635 178.227 179.859 181.26 176.016C179.389 174.853 177.538 173.71 175.667 172.547C161.919 177.258 148.151 181.969 134.403 186.66C133.694 168.447 132.985 150.254 132.276 132.041C121.344 130.661 110.432 129.242 99.5207 127.803V127.803Z" fill="#333333"/>
<path opacity="0.5" d="M83.8623 177.297C86.4228 178.992 90.3818 181.417 95.5028 183.743C101.884 186.66 120.773 195.293 141.238 190.503C156.108 187.015 167.611 177.455 166.862 175.878C166.39 174.892 160.619 175.917 134.915 186.147C134.501 177.81 134.088 169.452 133.694 161.115C132.985 168.132 132.256 175.149 131.547 182.146C115.652 180.549 99.7572 178.913 83.8623 177.297V177.297Z" fill="#333333"/>
<path d="M89.1605 154.827C87.7226 153.25 87.2499 151.042 87.959 149.111C88.6877 147.159 90.618 145.484 92.9224 145.563C94.9512 145.642 96.586 147.061 97.1768 148.401C97.6102 149.426 97.5117 150.372 97.5117 150.372C97.4526 150.904 97.2753 151.318 97.1374 151.575C96.1329 150.412 94.5966 149.879 93.1588 150.214C91.3861 150.628 90.618 152.146 90.5392 152.284C89.7316 153.94 90.4407 155.477 90.5392 155.655C90.0665 155.359 89.6135 155.083 89.1605 154.827V154.827Z" fill="#396BDB"/>
<path d="M188.824 129.873C187.76 130.661 186.618 131.726 185.574 133.125C181.693 138.349 182.225 144.479 182.501 146.469C179.054 145.76 173.263 145.07 166.429 146.647C162.352 147.593 159.082 149.071 156.679 150.412C157.053 150.648 157.566 150.924 158.216 151.101C161.899 152.107 165.779 149.012 165.897 149.229C166.015 149.426 161.564 151.515 161.8 153.329C161.958 154.551 164.144 155.201 166.409 155.891C168.32 156.463 170.132 157.015 172.554 156.739C175.883 156.364 178.188 154.689 179.212 153.822C180.197 154.314 181.654 154.965 183.486 155.536C186.854 156.561 191.502 157.981 194.595 156.049C196.604 154.787 197.214 151.831 198.357 145.957C199.814 138.427 200.543 134.663 198.534 132.278C195.875 129.104 190.537 129.636 188.824 129.873V129.873Z" fill="white" stroke="#333333" stroke-width="1.33188" stroke-miterlimit="10"/>
<path d="M181.831 146.667C184.215 147.554 186.184 149.17 187.543 151.318C187.74 151.634 188.252 151.338 188.055 151.023C186.618 148.736 184.51 147.041 181.989 146.095C181.634 145.977 181.477 146.548 181.831 146.667Z" fill="#333333"/>
<path d="M169.167 150.569C166.823 150.964 164.932 152.54 164.085 154.748C163.947 155.103 164.518 155.261 164.656 154.906C165.424 152.895 167.197 151.496 169.324 151.141C169.698 151.082 169.541 150.51 169.167 150.569V150.569Z" fill="#333333"/>
<path d="M164.361 155.122C165.582 156.285 167.276 156.68 168.871 156.167C169.226 156.049 169.068 155.477 168.714 155.596C167.315 156.049 165.838 155.734 164.774 154.709C164.499 154.433 164.085 154.847 164.361 155.122Z" fill="#333333"/>
<path d="M171.905 152.521C171.058 153.033 170.27 153.625 169.521 154.255C169.029 154.689 168.477 155.201 168.596 155.911C168.891 157.784 171.136 157.37 172.358 156.897C172.712 156.759 172.554 156.187 172.2 156.325C171.668 156.522 171.077 156.778 170.506 156.759C169.58 156.719 168.753 155.832 169.541 155.024C170.289 154.236 171.274 153.605 172.2 153.013C172.535 152.836 172.239 152.324 171.905 152.521Z" fill="#333333"/>
<path d="M187.839 101.746C188.646 102.376 189.69 103.244 190.793 104.367C191.108 104.683 191.916 105.51 192.723 106.535C193.984 108.112 194.791 109.61 195.678 111.443C196.82 113.789 197.963 116.135 199.105 119.643C200.07 122.6 201.547 127.251 201.724 133.441C201.803 135.885 201.646 137.935 201.488 139.374C200.681 138.447 199.873 137.836 199.203 137.442C195.441 135.136 190.872 135.964 186.558 136.752C184.943 137.048 183.604 137.402 182.678 137.659C182.915 135.491 183.131 133.322 183.368 131.154C183.565 129.341 183.742 127.508 183.939 125.675C183.565 125.024 183.052 124.098 182.58 122.935C181.654 120.707 179.803 116.332 180.866 111.424C182.127 105.786 186.558 102.593 187.839 101.746V101.746Z" fill="#396BDB"/>
<path d="M188.528 102.83C190.498 103.855 191.817 105.629 192.96 107.462C194.141 109.354 195.205 111.305 196.151 113.316C198.081 117.416 199.499 121.752 200.425 126.187C200.503 126.562 201.075 126.404 200.996 126.029C200.05 121.417 198.553 116.943 196.505 112.685C195.501 110.596 194.398 108.566 193.137 106.614C192.014 104.88 190.695 103.264 188.843 102.298C188.489 102.14 188.193 102.652 188.528 102.83V102.83Z" fill="#333333"/>
<path d="M182.383 122.876C183.289 124.729 184.234 126.542 185.219 128.355C185.396 128.69 185.909 128.395 185.731 128.06C184.746 126.246 183.801 124.433 182.895 122.58C182.718 122.225 182.206 122.521 182.383 122.876Z" fill="#333333"/>
<path d="M183.781 126.266C183.289 130.09 182.796 133.914 182.324 137.738C182.304 137.935 182.54 138.073 182.698 138.014C186.046 136.949 189.533 136.437 193.038 136.555C195.816 136.653 199.499 136.91 201.055 139.63C201.252 139.965 201.744 139.669 201.567 139.334C200.09 136.732 196.86 136.2 194.141 136.023C190.222 135.747 186.283 136.259 182.56 137.442C182.678 137.54 182.816 137.639 182.934 137.718C183.427 133.894 183.919 130.07 184.392 126.246C184.431 125.891 183.84 125.891 183.781 126.266V126.266Z" fill="#333333"/>
<path d="M200.385 125.891C201.075 130.228 202.197 134.82 201.035 139.177C200.937 139.551 201.508 139.709 201.606 139.334C202.788 134.88 201.665 130.188 200.956 125.734C200.897 125.359 200.326 125.517 200.385 125.891V125.891Z" fill="#333333"/>
<path opacity="0.32" d="M186.342 101.016C188.134 104.367 189.926 108.369 191.443 112.961C194.417 122.028 195.205 130.169 195.264 136.259L189.237 136.614C189.887 141.286 190.557 145.977 191.207 150.648C189.946 149.919 188.016 148.992 185.534 148.441C184.727 148.263 181.752 147.672 178.581 148.204C171.924 149.328 167.906 154.787 167 156.088C167.906 156.463 169.068 156.818 170.467 156.896C174.76 157.153 177.892 154.669 178.818 153.881C181.753 155.359 184.313 156.069 186.125 156.423C189.296 157.074 192.999 157.823 195.048 155.852C195.205 155.694 195.56 155.32 196.328 153.408C197.529 150.372 198.16 147.534 198.987 142.389C199.164 141.246 199.42 139.709 199.676 137.876L201.173 139.374C201.409 138.487 201.705 137.166 201.862 135.55C202.276 131.351 201.468 128.04 200.7 125.34C197.608 114.42 195.757 107.836 189.572 103.066C188.292 102.12 187.11 101.43 186.342 101.016V101.016Z" fill="#333333"/>
<path opacity="0.29" d="M196.761 114.518C198.081 120.944 198.258 126.404 198.16 130.346C198.061 134.012 197.687 136.693 197.293 139.393C196.131 147.534 195.54 151.594 193.295 153.486C189.04 157.074 181.457 154.354 179.645 153.664C181.359 154.807 187.524 158.69 193.551 156.542C194.181 156.305 194.87 156.009 195.54 155.576C196.249 154.373 197.194 152.521 197.805 150.096C198.16 148.657 198.258 147.613 198.396 146.391C198.613 144.42 198.987 141.542 199.617 137.935C200.188 138.427 200.779 138.92 201.35 139.413C201.547 138.408 201.803 136.87 201.862 134.978C202.04 130.405 201.035 126.936 199.873 122.974C199.243 120.806 198.258 117.889 196.761 114.518V114.518Z" fill="#333333"/>
<path d="M142.616 62.7777C142.813 64.8867 143.167 67.8433 143.955 71.3321C144.467 73.5989 144.783 75.0377 145.452 76.8314C146.457 79.5318 148.367 84.696 153.35 88.0665C154.552 88.8944 156.541 89.9982 159.338 90.6487C159.791 90.6881 160.244 90.7472 160.697 90.7866C160.855 91.6145 161.052 92.8365 161.249 94.3149C161.721 98.119 161.485 99.282 162.47 100.307C163.671 101.549 165.582 101.43 165.995 101.391C169.285 101.174 170.939 97.9022 171.018 97.7248C170.486 96.759 169.954 95.5763 169.521 94.1966C168.576 91.1414 168.556 88.4213 168.714 86.5685C170.23 84.3806 171.904 82.7052 173.598 81.4043C174.248 80.9115 174.8 80.2414 175.765 79.9063C177.144 79.4332 177.853 79.9063 178.877 79.5909C180.571 79.0587 181.299 76.8708 181.615 75.9641C182.816 72.3768 181.339 68.8289 180.393 66.7198C179.547 64.7881 177.341 59.9984 171.963 56.2534C166.429 52.3901 155.359 48.0931 148.032 53.6713C146.772 54.6371 143.896 57.2192 142.616 62.7777V62.7777Z" fill="white"/>
<path d="M143.443 70.8984C142.183 70.6816 138.992 69.9326 136.924 67.1928C133.772 63.0338 135.466 57.2192 137.219 54.1443C139.977 49.3151 144.999 47.6397 151.302 45.5307C155.044 44.2889 158.609 43.1063 163.455 43.3034C166.133 43.4216 175.213 43.8158 180.65 50.5766C183.88 54.5779 184.234 58.8749 184.943 67.3505C185.278 71.2335 185.022 73.3426 184.352 75.3531C183.86 76.8117 182.265 81.4831 177.675 83.3556C175.272 84.3412 173.047 84.1441 171.826 83.9469C172.929 82.311 174.032 80.6947 175.154 79.0587C175.785 79.0981 178.03 79.1375 179.744 77.5804C182.087 75.4319 182.501 71.1547 180.787 70.0114C179.527 69.1639 177.025 69.9917 174.859 71.9431C174.662 70.7013 174.347 69.3413 173.815 67.9418C171.333 61.2599 165.936 57.5937 163.297 56.0759C162.253 57.4163 158.944 61.3387 153.075 62.8959C148.426 64.1179 144.566 63.2507 142.852 62.7382L143.443 70.8984V70.8984Z" fill="#333333"/>
<path d="M142.458 63.29C143.266 69.3807 144.113 75.7078 147.087 81.1874C149.529 85.6815 153.469 89.5251 158.531 90.8062C158.905 90.9048 159.062 90.3332 158.688 90.2346C153.685 88.9534 149.825 85.0901 147.461 80.6158C144.645 75.2939 143.837 69.1835 143.049 63.29C142.99 62.9155 142.399 62.9155 142.458 63.29Z" fill="#333333"/>
<path d="M158.531 90.8852C162.096 90.8852 165.838 88.9732 168.635 86.9233C171.451 84.8537 173.756 82.1927 175.41 79.1179C175.588 78.7828 175.075 78.4871 174.898 78.8222C173.303 81.8182 171.077 84.4201 168.339 86.4108C165.602 88.4213 161.977 90.2939 158.531 90.2939C158.137 90.2939 158.137 90.8852 158.531 90.8852Z" fill="#333333"/>
<path d="M168.615 86.4502C168.221 90.4318 168.989 94.4133 170.801 97.981C170.979 98.3161 171.491 98.0204 171.314 97.6853C169.541 94.1965 168.832 90.3332 169.206 86.4502C169.245 86.0757 168.655 86.0757 168.615 86.4502Z" fill="#333333"/>
<path d="M160.047 90.7866C160.697 93.0337 161.229 95.3201 161.623 97.6263C161.879 99.1637 161.977 100.898 163.691 101.47C166.252 102.337 170.033 100.8 171.018 98.257C171.156 97.9022 170.585 97.7445 170.447 98.0993C169.895 99.5382 168.517 100.327 167.099 100.741C165.917 101.076 164.124 101.43 163.12 100.465C162.529 99.893 162.45 98.9863 162.332 98.2176C162.194 97.4094 162.056 96.6013 161.899 95.7932C161.544 94.0586 161.131 92.3241 160.638 90.6289C160.52 90.2741 159.949 90.4318 160.047 90.7866V90.7866Z" fill="#333333"/>
<path d="M160.894 93.2307C164.4 92.7774 166.705 90.0967 168.398 87.2189C168.595 86.8839 168.083 86.5882 167.886 86.9233C166.33 89.6039 164.164 92.2255 160.894 92.6394C160.52 92.6985 160.52 93.2899 160.894 93.2307Z" fill="#333333"/>
<path d="M160.756 91.2203C163.494 90.9049 165.956 89.6237 167.788 87.5541C168.044 87.2781 167.63 86.8445 167.374 87.1401C165.661 89.0915 163.336 90.3333 160.756 90.6289C160.402 90.6684 160.382 91.2597 160.756 91.2203Z" fill="#333333"/>
<path d="M160.855 90.7866C163.061 90.4712 165.05 89.5645 166.744 88.1257C167.039 87.8694 166.606 87.4555 166.33 87.7117C164.715 89.0915 162.805 89.939 160.697 90.2347C160.323 90.2741 160.48 90.8457 160.855 90.7866V90.7866Z" fill="#333333"/>
<path d="M160.737 91.2794C160.835 91.7524 160.815 92.6986 161.406 92.8562C161.978 93.0139 162.844 92.3438 163.297 92.0678C164.853 91.1217 166.153 89.8405 167.177 88.3425C167.394 88.0271 166.882 87.7314 166.665 88.0468C165.937 89.1309 165.05 90.0967 164.006 90.8852C163.514 91.2597 163.002 91.575 162.47 91.8707C162.253 91.989 161.761 92.324 161.544 92.1861C161.406 92.1072 161.347 91.2597 161.328 91.1217C161.229 90.7472 160.658 90.9049 160.737 91.2794Z" fill="#333333"/>
<path d="M161.012 91.8312C162.706 91.1414 164.302 90.2741 165.799 89.2294C166.114 89.0126 165.818 88.5001 165.503 88.7169C164.046 89.7419 162.509 90.5895 160.855 91.2596C160.5 91.3976 160.658 91.9692 161.012 91.8312V91.8312Z" fill="#333333"/>
<path d="M161.308 92.4226C163.199 91.7525 164.853 90.7078 166.232 89.2492C166.488 88.9732 166.074 88.5593 165.818 88.8353C164.499 90.1953 162.943 91.2203 161.15 91.851C160.796 91.989 160.953 92.5606 161.308 92.4226V92.4226Z" fill="#333333"/>
<path d="M161.623 92.1072C163.021 91.4962 164.302 90.6683 165.405 89.6039C165.68 89.3477 165.267 88.9338 164.991 89.19C163.908 90.215 162.687 91.0034 161.328 91.5947C160.973 91.7524 161.268 92.2649 161.623 92.1072Z" fill="#333333"/>
<path d="M145.531 78.2703C142.321 77.1271 141.257 72.9287 141.572 69.8932C141.907 66.5621 144.901 62.9353 148.564 64.4925C150.317 65.2415 150.967 67.1731 151.44 68.888C151.932 70.7014 152.149 72.7119 151.676 74.5647C151.263 76.2007 150.258 77.7578 148.682 78.4674C147.107 79.177 145.236 78.7828 144.172 77.4227C143.936 77.1271 143.522 77.541 143.758 77.8367C145.551 80.1428 148.919 79.6895 150.731 77.6593C153.035 75.0771 152.799 71.1547 151.814 68.0601C151.361 66.6212 150.77 65.1232 149.451 64.2954C148.308 63.5661 146.851 63.3887 145.57 63.7238C142.577 64.5319 141.021 67.7053 140.961 70.6028C140.902 73.7762 142.143 77.6987 145.413 78.8419C145.728 78.9602 145.886 78.3886 145.531 78.2703V78.2703Z" fill="#333333"/>
<path d="M152.346 72.3768C154.276 71.2138 156.62 71.0956 158.629 72.1008C158.964 72.2782 159.259 71.7657 158.925 71.5883C156.719 70.4845 154.158 70.5831 152.031 71.8643C151.735 72.0614 152.031 72.5739 152.346 72.3768Z" fill="#333333"/>
<path d="M161.761 76.5751C159.535 74.4266 158.61 71.0955 159.476 68.0995C160.382 64.9852 163.494 62.3045 166.843 63.4083C170.545 64.6304 170.742 69.9326 169.777 73.0469C169.206 74.88 168.064 76.7131 166.173 77.3833C164.282 78.0534 162.647 77.0482 161.131 75.9838C160.816 75.767 160.52 76.2795 160.835 76.4963C162.076 77.3833 163.415 78.2702 164.991 78.2111C166.488 78.152 167.847 77.3241 168.773 76.2006C170.861 73.6776 171.274 69.834 170.408 66.7592C169.62 63.9602 167.296 62.1468 164.321 62.6396C161.485 63.093 159.397 65.6554 158.767 68.336C158.038 71.4306 159.023 74.7814 161.308 76.989C161.623 77.265 162.037 76.8314 161.761 76.5751V76.5751Z" fill="#333333"/>
<path d="M147.323 70.0903C147.126 71.3321 147.343 72.5345 148.013 73.5988C148.151 73.8157 148.466 73.7762 148.545 73.52C149.017 72.1599 148.348 70.8196 147.678 69.6567C147.54 69.4004 147.126 69.5187 147.126 69.8144C147.146 70.859 147.363 71.884 147.757 72.8498C147.895 73.2046 148.466 73.0469 148.328 72.6921C147.954 71.7657 147.737 70.8196 147.717 69.8144C147.54 69.8735 147.343 69.9129 147.166 69.9721C147.776 71.0167 148.407 72.16 147.973 73.382C148.151 73.3623 148.328 73.3426 148.505 73.3032C147.914 72.3768 147.698 71.3321 147.875 70.248C147.954 69.8735 147.383 69.7158 147.323 70.0903V70.0903Z" fill="#333333"/>
<path d="M164.755 69.5384C164.755 69.2822 164.735 69.223 164.617 69.0062C164.479 68.75 164.065 68.8682 164.065 69.1639C164.085 70.386 164.183 71.7066 165.129 72.5739C165.326 72.7513 165.602 72.6133 165.641 72.357C165.799 70.8985 165.365 69.5384 164.459 68.3952C164.262 68.1587 163.908 68.4149 163.967 68.6908C164.203 69.6567 164.499 70.6028 164.853 71.5095C164.991 71.8643 165.562 71.7066 165.424 71.3518C165.05 70.4254 164.755 69.499 164.538 68.5332C164.38 68.6317 164.203 68.7303 164.046 68.8288C164.853 69.8538 165.188 71.0758 165.05 72.3768C165.227 72.2979 165.385 72.2388 165.562 72.1599C164.715 71.3912 164.676 70.2283 164.656 69.1639C164.479 69.223 164.282 69.2625 164.105 69.3216L164.164 69.5581C164.164 69.9129 164.755 69.9129 164.755 69.5384V69.5384Z" fill="#333333"/>
<path d="M154.316 73.4214C153.922 74.6041 153.587 75.8064 153.37 77.0285C153.252 77.679 152.838 78.901 153.134 79.5515C153.725 80.8721 156.344 80.064 157.25 79.6303C157.585 79.4726 157.29 78.9602 156.955 79.1178C156.226 79.4726 155.438 79.65 154.631 79.5909C154.158 79.5515 153.784 79.4726 153.685 78.9404C153.626 78.6448 153.823 77.8761 153.882 77.541C154.119 76.1809 154.473 74.8603 154.907 73.5594C155.005 73.2243 154.434 73.0666 154.316 73.4214V73.4214Z" fill="#333333"/>
<path d="M157.29 84.7945C158.767 84.5974 160.047 83.6513 160.697 82.2913C160.855 81.9562 160.343 81.6408 160.185 81.9956C159.594 83.2374 158.491 84.0455 157.132 84.2229C156.758 84.2821 156.935 84.8537 157.29 84.7945V84.7945Z" fill="#333333"/>
<path d="M146.083 68.3951C146.457 67.9418 147.146 67.8629 147.619 68.2571C147.914 68.5134 148.328 68.0797 148.033 67.8432C147.343 67.2519 146.28 67.2913 145.669 67.9812C145.413 68.2571 145.827 68.6711 146.083 68.3951Z" fill="#333333"/>
<path d="M162.982 67.2913C163.593 66.7591 164.518 66.7591 165.129 67.2716C165.424 67.5081 165.838 67.0942 165.543 66.8577C164.676 66.1087 163.415 66.1284 162.549 66.8774C162.273 67.1336 162.706 67.5475 162.982 67.2913Z" fill="#333333"/>
<path d="M170.742 70.0114C172.87 69.2624 175.056 68.8091 177.321 68.6908C177.695 68.6711 177.695 68.0798 177.321 68.0995C175.017 68.2177 172.771 68.6711 170.585 69.4398C170.23 69.5778 170.368 70.1494 170.742 70.0114V70.0114Z" fill="#333333"/>
<path opacity="0.4" d="M173.677 45.4518C174.859 46.9695 179.409 53.1981 178.562 61.7526C178.089 66.5226 176.12 70.0311 174.879 71.8839C175.588 71.332 176.198 70.9575 176.651 70.7013C177.853 70.0311 178.621 69.6172 179.606 69.6763C179.901 69.696 180.61 69.7551 181.122 70.1691C182.619 71.4306 182.107 75.9049 179.448 77.9942C177.991 79.1375 176.277 79.2557 175.41 79.236C174.288 80.8326 173.145 82.4292 172.023 84.0454C172.771 84.1637 173.914 84.2623 175.233 84.0652C175.804 83.9863 178.089 83.5724 180.256 81.8378C182.383 80.123 183.25 78.0337 183.821 76.6145C185.396 72.6723 185.081 69.2032 184.53 62.9549C184.293 60.1757 184.156 58.7565 183.604 56.884C183.013 54.8538 182.087 51.8578 179.448 49.1771C177.557 47.206 175.43 46.1022 173.677 45.4518V45.4518Z" fill="#333333"/>
<path opacity="0.48" d="M154.65 62.3045C156.62 60.5503 158.826 58.3033 160.953 55.5043C162.273 53.7698 163.376 52.0944 164.282 50.5372C163.947 52.3112 163.612 54.0852 163.297 55.8591C162.529 56.9629 161.249 58.5398 159.259 59.9787C157.506 61.2205 155.852 61.9103 154.65 62.3045Z" fill="#333333"/>
<path opacity="0.27" d="M168.655 60.0575C170.151 65.0443 170.27 69.223 170.132 71.9825C170.033 74.0324 169.482 84.7748 163.829 88.4804C163.277 88.8352 161.879 89.663 161.938 89.7813C162.017 89.9193 164.636 88.7564 166.074 87.9679C168.339 86.7459 171.826 84.282 175.056 79.0784C175.588 79.1375 178.188 79.3149 180.059 77.5212C182.324 75.3728 182.718 71.1547 180.925 69.9129C179.645 69.0259 177.203 69.7749 175.056 71.5489C174.839 70.6422 174.563 69.6961 174.189 68.6908C172.712 64.7881 170.486 61.9497 168.655 60.0575V60.0575Z" fill="#333333"/>
<path opacity="0.36" d="M163.908 89.6236C164.42 91.2005 164.932 92.7773 165.444 94.3739C166.153 96.5421 166.842 98.73 167.532 100.898C167.926 100.819 168.891 100.543 169.738 99.6761C170.585 98.8088 170.86 97.8627 170.959 97.4685C170.191 95.9508 169.285 93.6446 168.97 90.7274C168.812 89.2097 168.851 87.8694 168.97 86.7458C167.295 87.7117 165.602 88.6775 163.908 89.6236V89.6236Z" fill="#333333"/>
<path opacity="0.43" d="M154.079 74.1113C153.094 76.2204 152.11 78.3097 151.125 80.4188C152.74 80.3793 154.335 80.3596 155.95 80.3202C155.005 80.0246 154.04 79.7289 153.094 79.4332C153.41 77.6593 153.744 75.8853 154.079 74.1113Z" fill="#333333"/>
</svg>
